<?xml version="1.0" encoding="UTF-8" standalone="no"?>
<!DOCTYPE svg PUBLIC "-//W3C//DTD SVG 1.1//EN"
 "http://www.w3.org/Graphics/SVG/1.1/DTD/svg11.dtd">
<!-- Generated by graphviz version 2.36.0 (20140111.2315)
 -->
<!-- Title: models_diagram Pages: 1 -->
<svg width="577pt" height="846pt"
 viewBox="0.00 0.00 577.00 846.00" xmlns="http://www.w3.org/2000/svg" xmlns:xlink="http://www.w3.org/1999/xlink">
<g id="graph0" class="graph" transform="scale(1 1) rotate(0) translate(4 842)">
<title>models_diagram</title>
<polygon fill="none" stroke="none" points="-4,4 -4,-842 573,-842 573,4 -4,4"/>
<!-- User -->
<g id="node1" class="node"><title>User</title>
<path fill="none" stroke="black" d="M170,-408.5C170,-408.5 360,-408.5 360,-408.5 366,-408.5 372,-414.5 372,-420.5 372,-420.5 372,-667.5 372,-667.5 372,-673.5 366,-679.5 360,-679.5 360,-679.5 170,-679.5 170,-679.5 164,-679.5 158,-673.5 158,-667.5 158,-667.5 158,-420.5 158,-420.5 158,-414.5 164,-408.5 170,-408.5"/>
<text text-anchor="middle" x="265" y="-664.3" font-family="Times,serif" font-size="14.00">User</text>
<polyline fill="none" stroke="black" points="158,-656.5 372,-656.5 "/>
<text text-anchor="start" x="166" y="-641.3" font-family="Times,serif" font-size="14.00">id :int(11)</text>
<text text-anchor="start" x="166" y="-626.3" font-family="Times,serif" font-size="14.00">email :varchar(255)</text>
<text text-anchor="start" x="166" y="-611.3" font-family="Times,serif" font-size="14.00">encrypted_password :varchar(255)</text>
<text text-anchor="start" x="166" y="-596.3" font-family="Times,serif" font-size="14.00">reset_password_token :varchar(255)</text>
<text text-anchor="start" x="166" y="-581.3" font-family="Times,serif" font-size="14.00">reset_password_sent_at :datetime</text>
<text text-anchor="start" x="166" y="-566.3" font-family="Times,serif" font-size="14.00">remember_created_at :datetime</text>
<text text-anchor="start" x="166" y="-551.3" font-family="Times,serif" font-size="14.00">sign_in_count :int(11)</text>
<text text-anchor="start" x="166" y="-536.3" font-family="Times,serif" font-size="14.00">current_sign_in_at :datetime</text>
<text text-anchor="start" x="166" y="-521.3" font-family="Times,serif" font-size="14.00">last_sign_in_at :datetime</text>
<text text-anchor="start" x="166" y="-506.3" font-family="Times,serif" font-size="14.00">current_sign_in_ip :varchar(255)</text>
<text text-anchor="start" x="166" y="-491.3" font-family="Times,serif" font-size="14.00">last_sign_in_ip :varchar(255)</text>
<text text-anchor="start" x="166" y="-476.3" font-family="Times,serif" font-size="14.00">created_at :datetime</text>
<text text-anchor="start" x="166" y="-461.3" font-family="Times,serif" font-size="14.00">updated_at :datetime</text>
<text text-anchor="start" x="166" y="-446.3" font-family="Times,serif" font-size="14.00">name :varchar(255)</text>
<text text-anchor="start" x="166" y="-431.3" font-family="Times,serif" font-size="14.00">branch_id :int(11)</text>
<text text-anchor="start" x="166" y="-416.3" font-family="Times,serif" font-size="14.00">about_me :text</text>
</g>
<!-- Upload -->
<g id="node2" class="node"><title>Upload</title>
<path fill="none" stroke="black" d="M12,-1C12,-1 176,-1 176,-1 182,-1 188,-7 188,-13 188,-13 188,-185 188,-185 188,-191 182,-197 176,-197 176,-197 12,-197 12,-197 6,-197 0,-191 0,-185 0,-185 0,-13 0,-13 0,-7 6,-1 12,-1"/>
<text text-anchor="middle" x="94" y="-181.8" font-family="Times,serif" font-size="14.00">Upload</text>
<polyline fill="none" stroke="black" points="0,-174 188,-174 "/>
<text text-anchor="start" x="8" y="-158.8" font-family="Times,serif" font-size="14.00">id :int(11)</text>
<text text-anchor="start" x="8" y="-143.8" font-family="Times,serif" font-size="14.00">topic :varchar(255)</text>
<text text-anchor="start" x="8" y="-128.8" font-family="Times,serif" font-size="14.00">user_id :int(11)</text>
<text text-anchor="start" x="8" y="-113.8" font-family="Times,serif" font-size="14.00">subject_id :int(11)</text>
<text text-anchor="start" x="8" y="-98.8" font-family="Times,serif" font-size="14.00">created_at :datetime</text>
<text text-anchor="start" x="8" y="-83.8" font-family="Times,serif" font-size="14.00">updated_at :datetime</text>
<text text-anchor="start" x="8" y="-68.8" font-family="Times,serif" font-size="14.00">file_file_name :varchar(255)</text>
<text text-anchor="start" x="8" y="-53.8" font-family="Times,serif" font-size="14.00">file_content_type :varchar(255)</text>
<text text-anchor="start" x="8" y="-38.8" font-family="Times,serif" font-size="14.00">file_file_size :int(11)</text>
<text text-anchor="start" x="8" y="-23.8" font-family="Times,serif" font-size="14.00">file_updated_at :datetime</text>
<text text-anchor="start" x="8" y="-8.8" font-family="Times,serif" font-size="14.00">approved :tinyint(1)</text>
</g>
<!-- User&#45;&gt;Upload -->
<g id="edge2" class="edge"><title>User&#45;&gt;Upload</title>
<path fill="none" stroke="#110066" d="M151.456,-465.815C122.34,-439.748 94.8039,-407.997 79,-372 56.54,-320.842 58.0035,-258.976 66.0936,-207.179"/>
<ellipse fill="none" stroke="#110066" cx="154.684" cy="-468.65" rx="4.00002" ry="4.00002"/>
<polygon fill="#110066" stroke="#110066" points="66.0966,-207.16 72.1748,-198.033 66.9162,-202.228 67.7357,-197.296 67.7357,-197.296 67.7357,-197.296 66.9162,-202.228 63.2965,-196.558 66.0966,-207.16 66.0966,-207.16"/>
</g>
<!-- Subject -->
<g id="node3" class="node"><title>Subject</title>
<path fill="none" stroke="black" d="M326.5,-235C326.5,-235 433.5,-235 433.5,-235 439.5,-235 445.5,-241 445.5,-247 445.5,-247 445.5,-359 445.5,-359 445.5,-365 439.5,-371 433.5,-371 433.5,-371 326.5,-371 326.5,-371 320.5,-371 314.5,-365 314.5,-359 314.5,-359 314.5,-247 314.5,-247 314.5,-241 320.5,-235 326.5,-235"/>
<text text-anchor="middle" x="380" y="-355.8" font-family="Times,serif" font-size="14.00">Subject</text>
<polyline fill="none" stroke="black" points="314.5,-348 445.5,-348 "/>
<text text-anchor="start" x="322.5" y="-332.8" font-family="Times,serif" font-size="14.00">id :int(11)</text>
<text text-anchor="start" x="322.5" y="-317.8" font-family="Times,serif" font-size="14.00">name :varchar(255)</text>
<text text-anchor="start" x="322.5" y="-302.8" font-family="Times,serif" font-size="14.00">code :varchar(255)</text>
<text text-anchor="start" x="322.5" y="-287.8" font-family="Times,serif" font-size="14.00">created_at :datetime</text>
<text text-anchor="start" x="322.5" y="-272.8" font-family="Times,serif" font-size="14.00">updated_at :datetime</text>
<text text-anchor="start" x="322.5" y="-257.8" font-family="Times,serif" font-size="14.00">branch_id :int(11)</text>
<text text-anchor="start" x="322.5" y="-242.8" font-family="Times,serif" font-size="14.00">slug :varchar(255)</text>
</g>
<!-- User&#45;&gt;Subject -->
<g id="edge4" class="edge"><title>User&#45;&gt;Subject</title>
<path fill="none" stroke="#60d500" d="M334.193,-399.2C337.23,-392.887 340.222,-386.668 343.133,-380.619"/>
<polygon fill="#60d500" stroke="#60d500" points="334.063,-399.47 325.672,-406.53 331.895,-403.976 329.727,-408.481 329.727,-408.481 329.727,-408.481 331.895,-403.976 333.782,-410.432 334.063,-399.47 334.063,-399.47"/>
<polygon fill="#60d500" stroke="#60d500" points="343.299,-380.274 351.69,-373.214 345.467,-375.768 347.635,-371.262 347.635,-371.262 347.635,-371.262 345.467,-375.768 343.58,-369.311 343.299,-380.274 343.299,-380.274"/>
</g>
<!-- Link -->
<g id="node4" class="node"><title>Link</title>
<path fill="none" stroke="black" d="M410.5,-23.5C410.5,-23.5 517.5,-23.5 517.5,-23.5 523.5,-23.5 529.5,-29.5 529.5,-35.5 529.5,-35.5 529.5,-162.5 529.5,-162.5 529.5,-168.5 523.5,-174.5 517.5,-174.5 517.5,-174.5 410.5,-174.5 410.5,-174.5 404.5,-174.5 398.5,-168.5 398.5,-162.5 398.5,-162.5 398.5,-35.5 398.5,-35.5 398.5,-29.5 404.5,-23.5 410.5,-23.5"/>
<text text-anchor="middle" x="464" y="-159.3" font-family="Times,serif" font-size="14.00">Link</text>
<polyline fill="none" stroke="black" points="398.5,-151.5 529.5,-151.5 "/>
<text text-anchor="start" x="406.5" y="-136.3" font-family="Times,serif" font-size="14.00">id :int(11)</text>
<text text-anchor="start" x="406.5" y="-121.3" font-family="Times,serif" font-size="14.00">topic :varchar(255)</text>
<text text-anchor="start" x="406.5" y="-106.3" font-family="Times,serif" font-size="14.00">url :varchar(255)</text>
<text text-anchor="start" x="406.5" y="-91.3" font-family="Times,serif" font-size="14.00">user_id :int(11)</text>
<text text-anchor="start" x="406.5" y="-76.3" font-family="Times,serif" font-size="14.00">subject_id :int(11)</text>
<text text-anchor="start" x="406.5" y="-61.3" font-family="Times,serif" font-size="14.00">created_at :datetime</text>
<text text-anchor="start" x="406.5" y="-46.3" font-family="Times,serif" font-size="14.00">updated_at :datetime</text>
<text text-anchor="start" x="406.5" y="-31.3" font-family="Times,serif" font-size="14.00">approved :tinyint(1)</text>
</g>
<!-- User&#45;&gt;Link -->
<g id="edge5" class="edge"><title>User&#45;&gt;Link</title>
<path fill="none" stroke="#43cfc0" d="M378.575,-466.565C408.474,-440.345 437.075,-408.322 454,-372 481.15,-313.734 482.27,-240.587 477.357,-184.827"/>
<ellipse fill="none" stroke="#43cfc0" cx="375.21" cy="-469.461" rx="4.00002" ry="4.00002"/>
<polygon fill="#43cfc0" stroke="#43cfc0" points="477.333,-184.579 480.854,-174.194 476.854,-179.602 476.374,-174.625 476.374,-174.625 476.374,-174.625 476.854,-179.602 471.895,-175.057 477.333,-184.579 477.333,-184.579"/>
</g>
<!-- UserPreference -->
<g id="node6" class="node"><title>UserPreference</title>
<path fill="none" stroke="black" d="M242.5,-46C242.5,-46 349.5,-46 349.5,-46 355.5,-46 361.5,-52 361.5,-58 361.5,-58 361.5,-140 361.5,-140 361.5,-146 355.5,-152 349.5,-152 349.5,-152 242.5,-152 242.5,-152 236.5,-152 230.5,-146 230.5,-140 230.5,-140 230.5,-58 230.5,-58 230.5,-52 236.5,-46 242.5,-46"/>
<text text-anchor="middle" x="296" y="-136.8" font-family="Times,serif" font-size="14.00">UserPreference</text>
<polyline fill="none" stroke="black" points="230.5,-129 361.5,-129 "/>
<text text-anchor="start" x="238.5" y="-113.8" font-family="Times,serif" font-size="14.00">id :int(11)</text>
<text text-anchor="start" x="238.5" y="-98.8" font-family="Times,serif" font-size="14.00">user_id :int(11)</text>
<text text-anchor="start" x="238.5" y="-83.8" font-family="Times,serif" font-size="14.00">subject_id :int(11)</text>
<text text-anchor="start" x="238.5" y="-68.8" font-family="Times,serif" font-size="14.00">created_at :datetime</text>
<text text-anchor="start" x="238.5" y="-53.8" font-family="Times,serif" font-size="14.00">updated_at :datetime</text>
</g>
<!-- User&#45;&gt;UserPreference -->
<g id="edge3" class="edge"><title>User&#45;&gt;UserPreference</title>
<path fill="none" stroke="#c20f96" d="M274.998,-400.132C280.607,-319.969 287.322,-224.017 291.622,-162.558"/>
<ellipse fill="none" stroke="#c20f96" cx="274.707" cy="-404.291" rx="4" ry="4"/>
<polygon fill="#c20f96" stroke="#c20f96" points="291.646,-162.223 296.833,-152.562 291.995,-157.235 292.344,-152.247 292.344,-152.247 292.344,-152.247 291.995,-157.235 287.855,-151.933 291.646,-162.223 291.646,-162.223"/>
</g>
<!-- Role -->
<g id="node7" class="node"><title>Role</title>
<path fill="none" stroke="black" d="M100,-242.5C100,-242.5 246,-242.5 246,-242.5 252,-242.5 258,-248.5 258,-254.5 258,-254.5 258,-351.5 258,-351.5 258,-357.5 252,-363.5 246,-363.5 246,-363.5 100,-363.5 100,-363.5 94,-363.5 88,-357.5 88,-351.5 88,-351.5 88,-254.5 88,-254.5 88,-248.5 94,-242.5 100,-242.5"/>
<text text-anchor="middle" x="173" y="-348.3" font-family="Times,serif" font-size="14.00">Role</text>
<polyline fill="none" stroke="black" points="88,-340.5 258,-340.5 "/>
<text text-anchor="start" x="96" y="-325.3" font-family="Times,serif" font-size="14.00">id :int(11)</text>
<text text-anchor="start" x="96" y="-310.3" font-family="Times,serif" font-size="14.00">name :varchar(255)</text>
<text text-anchor="start" x="96" y="-295.3" font-family="Times,serif" font-size="14.00">resource_id :int(11)</text>
<text text-anchor="start" x="96" y="-280.3" font-family="Times,serif" font-size="14.00">resource_type :varchar(255)</text>
<text text-anchor="start" x="96" y="-265.3" font-family="Times,serif" font-size="14.00">created_at :datetime</text>
<text text-anchor="start" x="96" y="-250.3" font-family="Times,serif" font-size="14.00">updated_at :datetime</text>
</g>
<!-- User&#45;&gt;Role -->
<g id="edge1" class="edge"><title>User&#45;&gt;Role</title>
<path fill="none" stroke="#2b5422" d="M209.554,-398.961C206.132,-390.072 202.783,-381.371 199.587,-373.069"/>
<polygon fill="#2b5422" stroke="#2b5422" points="209.626,-399.149 209.019,-410.098 211.422,-403.815 213.219,-408.481 213.219,-408.481 213.219,-408.481 211.422,-403.815 217.418,-406.865 209.626,-399.149 209.626,-399.149"/>
<polygon fill="#2b5422" stroke="#2b5422" points="199.503,-372.85 200.11,-361.901 197.707,-368.184 195.911,-363.518 195.911,-363.518 195.911,-363.518 197.707,-368.184 191.711,-365.134 199.503,-372.85 199.503,-372.85"/>
</g>
<!-- Subject&#45;&gt;Upload -->
<g id="edge6" class="edge"><title>Subject&#45;&gt;Upload</title>
<path fill="none" stroke="#324958" d="M307.372,-256.189C279.983,-238.473 248.753,-217.739 221,-198 212.831,-192.19 204.448,-186.076 196.073,-179.858"/>
<ellipse fill="none" stroke="#324958" cx="310.887" cy="-258.457" rx="4.00002" ry="4.00002"/>
<polygon fill="#324958" stroke="#324958" points="196.067,-179.854 190.745,-170.266 192.06,-176.863 188.053,-173.872 188.053,-173.872 188.053,-173.872 192.06,-176.863 185.361,-177.479 196.067,-179.854 196.067,-179.854"/>
</g>
<!-- Subject&#45;&gt;Link -->
<g id="edge7" class="edge"><title>Subject&#45;&gt;Link</title>
<path fill="none" stroke="#bc4a79" d="M411.203,-226.964C417.035,-212.939 423.165,-198.198 429.101,-183.925"/>
<ellipse fill="none" stroke="#bc4a79" cx="409.507" cy="-231.044" rx="4.00001" ry="4.00001"/>
<polygon fill="#bc4a79" stroke="#bc4a79" points="429.128,-183.859 437.123,-176.353 431.048,-179.242 432.968,-174.626 432.968,-174.626 432.968,-174.626 431.048,-179.242 428.813,-172.898 429.128,-183.859 429.128,-183.859"/>
</g>
<!-- Subject&#45;&gt;UserPreference -->
<g id="edge8" class="edge"><title>Subject&#45;&gt;UserPreference</title>
<path fill="none" stroke="#df0f05" d="M348.852,-227.096C339.88,-205.522 330.2,-182.242 321.605,-161.575"/>
<ellipse fill="none" stroke="#df0f05" cx="350.493" cy="-231.044" rx="4.00001" ry="4.00001"/>
<polygon fill="#df0f05" stroke="#df0f05" points="321.579,-161.512 321.895,-150.551 319.659,-156.895 317.74,-152.279 317.74,-152.279 317.74,-152.279 319.659,-156.895 313.585,-154.006 321.579,-161.512 321.579,-161.512"/>
</g>
<!-- Branch -->
<g id="node5" class="node"><title>Branch</title>
<path fill="none" stroke="black" d="M278.5,-724C278.5,-724 385.5,-724 385.5,-724 391.5,-724 397.5,-730 397.5,-736 397.5,-736 397.5,-818 397.5,-818 397.5,-824 391.5,-830 385.5,-830 385.5,-830 278.5,-830 278.5,-830 272.5,-830 266.5,-824 266.5,-818 266.5,-818 266.5,-736 266.5,-736 266.5,-730 272.5,-724 278.5,-724"/>
<text text-anchor="middle" x="332" y="-814.8" font-family="Times,serif" font-size="14.00">Branch</text>
<polyline fill="none" stroke="black" points="266.5,-807 397.5,-807 "/>
<text text-anchor="start" x="274.5" y="-791.8" font-family="Times,serif" font-size="14.00">id :int(11)</text>
<text text-anchor="start" x="274.5" y="-776.8" font-family="Times,serif" font-size="14.00">name :varchar(255)</text>
<text text-anchor="start" x="274.5" y="-761.8" font-family="Times,serif" font-size="14.00">created_at :datetime</text>
<text text-anchor="start" x="274.5" y="-746.8" font-family="Times,serif" font-size="14.00">updated_at :datetime</text>
<text text-anchor="start" x="274.5" y="-731.8" font-family="Times,serif" font-size="14.00">slug :varchar(255)</text>
</g>
<!-- Branch&#45;&gt;User -->
<g id="edge9" class="edge"><title>Branch&#45;&gt;User</title>
<path fill="none" stroke="#036cf4" d="M314.639,-716.144C312.187,-707.689 309.583,-698.712 306.903,-689.47"/>
<ellipse fill="none" stroke="#036cf4" cx="315.766" cy="-720.029" rx="4.00001" ry="4.00001"/>
<polygon fill="#036cf4" stroke="#036cf4" points="306.87,-689.358 308.406,-678.501 305.477,-684.556 304.085,-679.754 304.085,-679.754 304.085,-679.754 305.477,-684.556 299.763,-681.008 306.87,-689.358 306.87,-689.358"/>
</g>
<!-- Branch&#45;&gt;Subject -->
<g id="edge10" class="edge"><title>Branch&#45;&gt;Subject</title>
<path fill="none" stroke="#1ed438" d="M367.104,-716.292C372.44,-704.615 377.12,-692.199 380,-680 403.862,-578.917 398.063,-458.243 390.255,-381.376"/>
<ellipse fill="none" stroke="#1ed438" cx="365.231" cy="-720.236" rx="4.00002" ry="4.00002"/>
<polygon fill="#1ed438" stroke="#1ed438" points="390.241,-381.238 393.669,-370.822 389.717,-376.266 389.194,-371.293 389.194,-371.293 389.194,-371.293 389.717,-376.266 384.719,-371.764 390.241,-381.238 390.241,-381.238"/>
</g>
<!-- Feedback -->
<g id="node8" class="node"><title>Feedback</title>
<path fill="none" stroke="black" d="M427.5,-716.5C427.5,-716.5 556.5,-716.5 556.5,-716.5 562.5,-716.5 568.5,-722.5 568.5,-728.5 568.5,-728.5 568.5,-825.5 568.5,-825.5 568.5,-831.5 562.5,-837.5 556.5,-837.5 556.5,-837.5 427.5,-837.5 427.5,-837.5 421.5,-837.5 415.5,-831.5 415.5,-825.5 415.5,-825.5 415.5,-728.5 415.5,-728.5 415.5,-722.5 421.5,-716.5 427.5,-716.5"/>
<text text-anchor="middle" x="492" y="-822.3" font-family="Times,serif" font-size="14.00">Feedback</text>
<polyline fill="none" stroke="black" points="415.5,-814.5 568.5,-814.5 "/>
<text text-anchor="start" x="423.5" y="-799.3" font-family="Times,serif" font-size="14.00">id :int(11)</text>
<text text-anchor="start" x="423.5" y="-784.3" font-family="Times,serif" font-size="14.00">user_name :varchar(255)</text>
<text text-anchor="start" x="423.5" y="-769.3" font-family="Times,serif" font-size="14.00">email :varchar(255)</text>
<text text-anchor="start" x="423.5" y="-754.3" font-family="Times,serif" font-size="14.00">content :text</text>
<text text-anchor="start" x="423.5" y="-739.3" font-family="Times,serif" font-size="14.00">created_at :datetime</text>
<text text-anchor="start" x="423.5" y="-724.3" font-family="Times,serif" font-size="14.00">updated_at :datetime</text>
</g>
</g>
</svg>
