<?xml version="1.0" encoding="UTF-8" standalone="no"?>
<!DOCTYPE svg PUBLIC "-//W3C//DTD SVG 1.1//EN"
 "http://www.w3.org/Graphics/SVG/1.1/DTD/svg11.dtd">
<!-- Generated by graphviz version 2.36.0 (20140111.2315)
 -->
<!-- Title: controllers_diagram Pages: 1 -->
<svg width="674pt" height="640pt"
 viewBox="0.00 0.00 674.00 640.00" xmlns="http://www.w3.org/2000/svg" xmlns:xlink="http://www.w3.org/1999/xlink">
<g id="graph0" class="graph" transform="scale(1 1) rotate(0) translate(4 636)">
<title>controllers_diagram</title>
<polygon fill="none" stroke="none" points="-4,4 -4,-636 670,-636 670,4 -4,4"/>
<!-- _diagram_info -->
<g id="node1" class="node"><title>_diagram_info</title>
<text text-anchor="start" x="365" y="-97.6" font-family="Times,serif" font-size="13.00">Controllers diagram</text>
<text text-anchor="start" x="365" y="-83.6" font-family="Times,serif" font-size="13.00">Date: Feb 25 2016 &#45; 08:42</text>
<text text-anchor="start" x="365" y="-69.6" font-family="Times,serif" font-size="13.00">Migration version: 20151219195850</text>
<text text-anchor="start" x="365" y="-55.6" font-family="Times,serif" font-size="13.00">Generated by RailRoady 1.4.2</text>
<text text-anchor="start" x="365" y="-41.6" font-family="Times,serif" font-size="13.00">http://railroady.prestonlee.com</text>
</g>
<!-- RegistrationsController -->
<g id="node2" class="node"><title>RegistrationsController</title>
<path fill="none" stroke="black" d="M29,-493.5C29,-493.5 153,-493.5 153,-493.5 159,-493.5 165,-499.5 165,-505.5 165,-505.5 165,-619.5 165,-619.5 165,-625.5 159,-631.5 153,-631.5 153,-631.5 29,-631.5 29,-631.5 23,-631.5 17,-625.5 17,-619.5 17,-619.5 17,-505.5 17,-505.5 17,-499.5 23,-493.5 29,-493.5"/>
<text text-anchor="middle" x="91" y="-616.3" font-family="Times,serif" font-size="14.00">RegistrationsController</text>
<polyline fill="none" stroke="black" points="17,-608.5 165,-608.5 "/>
<polyline fill="none" stroke="black" points="17,-584.5 165,-584.5 "/>
<text text-anchor="start" x="25" y="-569.3" font-family="Times,serif" font-size="14.00">_layout_from_proc</text>
<text text-anchor="start" x="25" y="-554.3" font-family="Times,serif" font-size="14.00">after_update_path_for</text>
<polyline fill="none" stroke="black" points="17,-546.5 165,-546.5 "/>
<text text-anchor="start" x="25" y="-531.3" font-family="Times,serif" font-size="14.00">_layout</text>
<text text-anchor="start" x="25" y="-516.3" font-family="Times,serif" font-size="14.00">account_update_params</text>
<text text-anchor="start" x="25" y="-501.3" font-family="Times,serif" font-size="14.00">sign_up_params</text>
</g>
<!-- ApplicationController -->
<g id="node3" class="node"><title>ApplicationController</title>
<path fill="none" stroke="black" d="M182,-0.5C182,-0.5 294,-0.5 294,-0.5 300,-0.5 306,-6.5 306,-12.5 306,-12.5 306,-96.5 306,-96.5 306,-102.5 300,-108.5 294,-108.5 294,-108.5 182,-108.5 182,-108.5 176,-108.5 170,-102.5 170,-96.5 170,-96.5 170,-12.5 170,-12.5 170,-6.5 176,-0.5 182,-0.5"/>
<text text-anchor="middle" x="238" y="-93.3" font-family="Times,serif" font-size="14.00">ApplicationController</text>
<polyline fill="none" stroke="black" points="170,-85.5 306,-85.5 "/>
<polyline fill="none" stroke="black" points="170,-61.5 306,-61.5 "/>
<text text-anchor="start" x="178" y="-46.3" font-family="Times,serif" font-size="14.00">_layout_from_proc</text>
<polyline fill="none" stroke="black" points="170,-38.5 306,-38.5 "/>
<text text-anchor="start" x="178" y="-23.3" font-family="Times,serif" font-size="14.00">_layout</text>
<text text-anchor="start" x="178" y="-8.3" font-family="Times,serif" font-size="14.00">query_check</text>
</g>
<!-- BranchesController -->
<g id="node4" class="node"><title>BranchesController</title>
<path fill="none" stroke="black" d="M29,-68.5C29,-68.5 127,-68.5 127,-68.5 133,-68.5 139,-74.5 139,-80.5 139,-80.5 139,-208.5 139,-208.5 139,-214.5 133,-220.5 127,-220.5 127,-220.5 29,-220.5 29,-220.5 23,-220.5 17,-214.5 17,-208.5 17,-208.5 17,-80.5 17,-80.5 17,-74.5 23,-68.5 29,-68.5"/>
<text text-anchor="middle" x="78" y="-205.3" font-family="Times,serif" font-size="14.00">BranchesController</text>
<polyline fill="none" stroke="black" points="17,-197.5 139,-197.5 "/>
<text text-anchor="start" x="25" y="-182.3" font-family="Times,serif" font-size="14.00">index</text>
<text text-anchor="start" x="25" y="-167.3" font-family="Times,serif" font-size="14.00">links</text>
<text text-anchor="start" x="25" y="-152.3" font-family="Times,serif" font-size="14.00">show</text>
<text text-anchor="start" x="25" y="-137.3" font-family="Times,serif" font-size="14.00">uploads</text>
<polyline fill="none" stroke="black" points="17,-129.5 139,-129.5 "/>
<text text-anchor="start" x="25" y="-114.3" font-family="Times,serif" font-size="14.00">_layout_from_proc</text>
<polyline fill="none" stroke="black" points="17,-106.5 139,-106.5 "/>
<text text-anchor="start" x="25" y="-91.3" font-family="Times,serif" font-size="14.00">_layout</text>
<text text-anchor="start" x="25" y="-76.3" font-family="Times,serif" font-size="14.00">get_subject_ids</text>
</g>
<!-- ProfileController -->
<g id="node5" class="node"><title>ProfileController</title>
<path fill="none" stroke="black" d="M556,-306.5C556,-306.5 654,-306.5 654,-306.5 660,-306.5 666,-312.5 666,-318.5 666,-318.5 666,-386.5 666,-386.5 666,-392.5 660,-398.5 654,-398.5 654,-398.5 556,-398.5 556,-398.5 550,-398.5 544,-392.5 544,-386.5 544,-386.5 544,-318.5 544,-318.5 544,-312.5 550,-306.5 556,-306.5"/>
<text text-anchor="middle" x="605" y="-383.3" font-family="Times,serif" font-size="14.00">ProfileController</text>
<polyline fill="none" stroke="black" points="544,-375.5 666,-375.5 "/>
<text text-anchor="start" x="552" y="-360.3" font-family="Times,serif" font-size="14.00">show</text>
<polyline fill="none" stroke="black" points="544,-352.5 666,-352.5 "/>
<text text-anchor="start" x="552" y="-337.3" font-family="Times,serif" font-size="14.00">_layout_from_proc</text>
<polyline fill="none" stroke="black" points="544,-329.5 666,-329.5 "/>
<text text-anchor="start" x="552" y="-314.3" font-family="Times,serif" font-size="14.00">_layout</text>
</g>
<!-- LinksController -->
<g id="node6" class="node"><title>LinksController</title>
<path fill="none" stroke="black" d="M369,-153.5C369,-153.5 467,-153.5 467,-153.5 473,-153.5 479,-159.5 479,-165.5 479,-165.5 479,-353.5 479,-353.5 479,-359.5 473,-365.5 467,-365.5 467,-365.5 369,-365.5 369,-365.5 363,-365.5 357,-359.5 357,-353.5 357,-353.5 357,-165.5 357,-165.5 357,-159.5 363,-153.5 369,-153.5"/>
<text text-anchor="middle" x="418" y="-350.3" font-family="Times,serif" font-size="14.00">LinksController</text>
<polyline fill="none" stroke="black" points="357,-342.5 479,-342.5 "/>
<text text-anchor="start" x="365" y="-327.3" font-family="Times,serif" font-size="14.00">create</text>
<text text-anchor="start" x="365" y="-312.3" font-family="Times,serif" font-size="14.00">destroy</text>
<text text-anchor="start" x="365" y="-297.3" font-family="Times,serif" font-size="14.00">edit</text>
<text text-anchor="start" x="365" y="-282.3" font-family="Times,serif" font-size="14.00">index</text>
<text text-anchor="start" x="365" y="-267.3" font-family="Times,serif" font-size="14.00">new</text>
<text text-anchor="start" x="365" y="-252.3" font-family="Times,serif" font-size="14.00">show</text>
<text text-anchor="start" x="365" y="-237.3" font-family="Times,serif" font-size="14.00">update</text>
<polyline fill="none" stroke="black" points="357,-229.5 479,-229.5 "/>
<text text-anchor="start" x="365" y="-214.3" font-family="Times,serif" font-size="14.00">_layout_from_proc</text>
<polyline fill="none" stroke="black" points="357,-206.5 479,-206.5 "/>
<text text-anchor="start" x="365" y="-191.3" font-family="Times,serif" font-size="14.00">_layout</text>
<text text-anchor="start" x="365" y="-176.3" font-family="Times,serif" font-size="14.00">link_params</text>
<text text-anchor="start" x="365" y="-161.3" font-family="Times,serif" font-size="14.00">set_link</text>
</g>
<!-- FeedbacksController -->
<g id="node7" class="node"><title>FeedbacksController</title>
<path fill="none" stroke="black" d="M522,-153.5C522,-153.5 627,-153.5 627,-153.5 633,-153.5 639,-159.5 639,-165.5 639,-165.5 639,-263.5 639,-263.5 639,-269.5 633,-275.5 627,-275.5 627,-275.5 522,-275.5 522,-275.5 516,-275.5 510,-269.5 510,-263.5 510,-263.5 510,-165.5 510,-165.5 510,-159.5 516,-153.5 522,-153.5"/>
<text text-anchor="middle" x="574.5" y="-260.3" font-family="Times,serif" font-size="14.00">FeedbacksController</text>
<polyline fill="none" stroke="black" points="510,-252.5 639,-252.5 "/>
<text text-anchor="start" x="518" y="-237.3" font-family="Times,serif" font-size="14.00">create</text>
<text text-anchor="start" x="518" y="-222.3" font-family="Times,serif" font-size="14.00">index</text>
<polyline fill="none" stroke="black" points="510,-214.5 639,-214.5 "/>
<text text-anchor="start" x="518" y="-199.3" font-family="Times,serif" font-size="14.00">_layout_from_proc</text>
<polyline fill="none" stroke="black" points="510,-191.5 639,-191.5 "/>
<text text-anchor="start" x="518" y="-176.3" font-family="Times,serif" font-size="14.00">_layout</text>
<text text-anchor="start" x="518" y="-161.3" font-family="Times,serif" font-size="14.00">feedback_params</text>
</g>
<!-- SubjectsController -->
<g id="node8" class="node"><title>SubjectsController</title>
<path fill="none" stroke="black" d="M216,-374.5C216,-374.5 314,-374.5 314,-374.5 320,-374.5 326,-380.5 326,-386.5 326,-386.5 326,-574.5 326,-574.5 326,-580.5 320,-586.5 314,-586.5 314,-586.5 216,-586.5 216,-586.5 210,-586.5 204,-580.5 204,-574.5 204,-574.5 204,-386.5 204,-386.5 204,-380.5 210,-374.5 216,-374.5"/>
<text text-anchor="middle" x="265" y="-571.3" font-family="Times,serif" font-size="14.00">SubjectsController</text>
<polyline fill="none" stroke="black" points="204,-563.5 326,-563.5 "/>
<text text-anchor="start" x="212" y="-548.3" font-family="Times,serif" font-size="14.00">create</text>
<text text-anchor="start" x="212" y="-533.3" font-family="Times,serif" font-size="14.00">destroy</text>
<text text-anchor="start" x="212" y="-518.3" font-family="Times,serif" font-size="14.00">edit</text>
<text text-anchor="start" x="212" y="-503.3" font-family="Times,serif" font-size="14.00">index</text>
<text text-anchor="start" x="212" y="-488.3" font-family="Times,serif" font-size="14.00">new</text>
<text text-anchor="start" x="212" y="-473.3" font-family="Times,serif" font-size="14.00">show</text>
<text text-anchor="start" x="212" y="-458.3" font-family="Times,serif" font-size="14.00">update</text>
<polyline fill="none" stroke="black" points="204,-450.5 326,-450.5 "/>
<text text-anchor="start" x="212" y="-435.3" font-family="Times,serif" font-size="14.00">_layout_from_proc</text>
<polyline fill="none" stroke="black" points="204,-427.5 326,-427.5 "/>
<text text-anchor="start" x="212" y="-412.3" font-family="Times,serif" font-size="14.00">_layout</text>
<text text-anchor="start" x="212" y="-397.3" font-family="Times,serif" font-size="14.00">set_subject</text>
<text text-anchor="start" x="212" y="-382.3" font-family="Times,serif" font-size="14.00">subject_params</text>
</g>
<!-- UserPreferencesController -->
<g id="node9" class="node"><title>UserPreferencesController</title>
<path fill="none" stroke="black" d="M182,-136.5C182,-136.5 319,-136.5 319,-136.5 325,-136.5 331,-142.5 331,-148.5 331,-148.5 331,-336.5 331,-336.5 331,-342.5 325,-348.5 319,-348.5 319,-348.5 182,-348.5 182,-348.5 176,-348.5 170,-342.5 170,-336.5 170,-336.5 170,-148.5 170,-148.5 170,-142.5 176,-136.5 182,-136.5"/>
<text text-anchor="middle" x="250.5" y="-333.3" font-family="Times,serif" font-size="14.00">UserPreferencesController</text>
<polyline fill="none" stroke="black" points="170,-325.5 331,-325.5 "/>
<text text-anchor="start" x="178" y="-310.3" font-family="Times,serif" font-size="14.00">create</text>
<text text-anchor="start" x="178" y="-295.3" font-family="Times,serif" font-size="14.00">destroy</text>
<text text-anchor="start" x="178" y="-280.3" font-family="Times,serif" font-size="14.00">edit</text>
<text text-anchor="start" x="178" y="-265.3" font-family="Times,serif" font-size="14.00">index</text>
<text text-anchor="start" x="178" y="-250.3" font-family="Times,serif" font-size="14.00">new</text>
<text text-anchor="start" x="178" y="-235.3" font-family="Times,serif" font-size="14.00">show</text>
<text text-anchor="start" x="178" y="-220.3" font-family="Times,serif" font-size="14.00">update</text>
<polyline fill="none" stroke="black" points="170,-212.5 331,-212.5 "/>
<text text-anchor="start" x="178" y="-197.3" font-family="Times,serif" font-size="14.00">_layout_from_proc</text>
<polyline fill="none" stroke="black" points="170,-189.5 331,-189.5 "/>
<text text-anchor="start" x="178" y="-174.3" font-family="Times,serif" font-size="14.00">_layout</text>
<text text-anchor="start" x="178" y="-159.3" font-family="Times,serif" font-size="14.00">set_user_preference</text>
<text text-anchor="start" x="178" y="-144.3" font-family="Times,serif" font-size="14.00">user_preference_params</text>
</g>
<!-- HomePagesController -->
<g id="node10" class="node"><title>HomePagesController</title>
<path fill="none" stroke="black" d="M12,-255.5C12,-255.5 125,-255.5 125,-255.5 131,-255.5 137,-261.5 137,-267.5 137,-267.5 137,-410.5 137,-410.5 137,-416.5 131,-422.5 125,-422.5 125,-422.5 12,-422.5 12,-422.5 6,-422.5 0,-416.5 0,-410.5 0,-410.5 0,-267.5 0,-267.5 0,-261.5 6,-255.5 12,-255.5"/>
<text text-anchor="middle" x="68.5" y="-407.3" font-family="Times,serif" font-size="14.00">HomePagesController</text>
<polyline fill="none" stroke="black" points="0,-399.5 137,-399.5 "/>
<text text-anchor="start" x="8" y="-384.3" font-family="Times,serif" font-size="14.00">all_subjects</text>
<text text-anchor="start" x="8" y="-369.3" font-family="Times,serif" font-size="14.00">index</text>
<text text-anchor="start" x="8" y="-354.3" font-family="Times,serif" font-size="14.00">link_approval</text>
<text text-anchor="start" x="8" y="-339.3" font-family="Times,serif" font-size="14.00">search</text>
<text text-anchor="start" x="8" y="-324.3" font-family="Times,serif" font-size="14.00">team</text>
<text text-anchor="start" x="8" y="-309.3" font-family="Times,serif" font-size="14.00">upload_approval</text>
<polyline fill="none" stroke="black" points="0,-301.5 137,-301.5 "/>
<text text-anchor="start" x="8" y="-286.3" font-family="Times,serif" font-size="14.00">_layout_from_proc</text>
<polyline fill="none" stroke="black" points="0,-278.5 137,-278.5 "/>
<text text-anchor="start" x="8" y="-263.3" font-family="Times,serif" font-size="14.00">_layout</text>
</g>
<!-- UploadsController -->
<g id="node11" class="node"><title>UploadsController</title>
<path fill="none" stroke="black" d="M403,-391.5C403,-391.5 501,-391.5 501,-391.5 507,-391.5 513,-397.5 513,-403.5 513,-403.5 513,-591.5 513,-591.5 513,-597.5 507,-603.5 501,-603.5 501,-603.5 403,-603.5 403,-603.5 397,-603.5 391,-597.5 391,-591.5 391,-591.5 391,-403.5 391,-403.5 391,-397.5 397,-391.5 403,-391.5"/>
<text text-anchor="middle" x="452" y="-588.3" font-family="Times,serif" font-size="14.00">UploadsController</text>
<polyline fill="none" stroke="black" points="391,-580.5 513,-580.5 "/>
<text text-anchor="start" x="399" y="-565.3" font-family="Times,serif" font-size="14.00">create</text>
<text text-anchor="start" x="399" y="-550.3" font-family="Times,serif" font-size="14.00">destroy</text>
<text text-anchor="start" x="399" y="-535.3" font-family="Times,serif" font-size="14.00">edit</text>
<text text-anchor="start" x="399" y="-520.3" font-family="Times,serif" font-size="14.00">index</text>
<text text-anchor="start" x="399" y="-505.3" font-family="Times,serif" font-size="14.00">new</text>
<text text-anchor="start" x="399" y="-490.3" font-family="Times,serif" font-size="14.00">show</text>
<text text-anchor="start" x="399" y="-475.3" font-family="Times,serif" font-size="14.00">update</text>
<polyline fill="none" stroke="black" points="391,-467.5 513,-467.5 "/>
<text text-anchor="start" x="399" y="-452.3" font-family="Times,serif" font-size="14.00">_layout_from_proc</text>
<polyline fill="none" stroke="black" points="391,-444.5 513,-444.5 "/>
<text text-anchor="start" x="399" y="-429.3" font-family="Times,serif" font-size="14.00">_layout</text>
<text text-anchor="start" x="399" y="-414.3" font-family="Times,serif" font-size="14.00">set_upload</text>
<text text-anchor="start" x="399" y="-399.3" font-family="Times,serif" font-size="14.00">upload_params</text>
</g>
</g>
</svg>
