<?xml version="1.0" encoding="UTF-8" standalone="no"?>
<!DOCTYPE svg PUBLIC "-//W3C//DTD SVG 1.1//EN"
 "http://www.w3.org/Graphics/SVG/1.1/DTD/svg11.dtd">
<!-- Generated by graphviz version 2.36.0 (20140111.2315)
 -->
<!-- Title: controllers_diagram Pages: 1 -->
<svg width="1169pt" height="1778pt"
 viewBox="0.00 0.00 1169.37 1777.85" xmlns="http://www.w3.org/2000/svg" xmlns:xlink="http://www.w3.org/1999/xlink">
<g id="graph0" class="graph" transform="scale(1 1) rotate(0) translate(4 1773.85)">
<title>controllers_diagram</title>
<polygon fill="none" stroke="none" points="-4,4 -4,-1773.85 1165.37,-1773.85 1165.37,4 -4,4"/>
<!-- _diagram_info -->
<g id="node1" class="node"><title>_diagram_info</title>
<text text-anchor="start" x="8" y="-507.6" font-family="Times,serif" font-size="13.00">Controllers diagram</text>
<text text-anchor="start" x="8" y="-493.6" font-family="Times,serif" font-size="13.00">Date: Nov 01 2015 &#45; 12:54</text>
<text text-anchor="start" x="8" y="-479.6" font-family="Times,serif" font-size="13.00">Migration version: 20150925112217</text>
<text text-anchor="start" x="8" y="-465.6" font-family="Times,serif" font-size="13.00">Generated by RailRoady 1.4.1</text>
<text text-anchor="start" x="8" y="-451.6" font-family="Times,serif" font-size="13.00">http://railroady.prestonlee.com</text>
</g>
<!-- RegistrationsController -->
<g id="node2" class="node"><title>RegistrationsController</title>
<path fill="none" stroke="black" d="M501.145,-16.5678C501.145,-16.5678 625.145,-16.5678 625.145,-16.5678 631.145,-16.5678 637.145,-22.5678 637.145,-28.5678 637.145,-28.5678 637.145,-127.568 637.145,-127.568 637.145,-133.568 631.145,-139.568 625.145,-139.568 625.145,-139.568 501.145,-139.568 501.145,-139.568 495.145,-139.568 489.145,-133.568 489.145,-127.568 489.145,-127.568 489.145,-28.5678 489.145,-28.5678 489.145,-22.5678 495.145,-16.5678 501.145,-16.5678"/>
<text text-anchor="middle" x="563.145" y="-124.368" font-family="Times,serif" font-size="14.00">RegistrationsController</text>
<polyline fill="none" stroke="black" points="489.145,-116.568 637.145,-116.568 "/>
<polyline fill="none" stroke="black" points="489.145,-92.5678 637.145,-92.5678 "/>
<text text-anchor="start" x="497.145" y="-77.3678" font-family="Times,serif" font-size="14.00">after_update_path_for</text>
<polyline fill="none" stroke="black" points="489.145,-69.5678 637.145,-69.5678 "/>
<text text-anchor="start" x="497.145" y="-54.3678" font-family="Times,serif" font-size="14.00">_layout</text>
<text text-anchor="start" x="497.145" y="-39.3678" font-family="Times,serif" font-size="14.00">account_update_params</text>
<text text-anchor="start" x="497.145" y="-24.3678" font-family="Times,serif" font-size="14.00">sign_up_params</text>
</g>
<!-- ApplicationController -->
<g id="node3" class="node"><title>ApplicationController</title>
<path fill="none" stroke="black" d="M348.868,-807.379C348.868,-807.379 460.868,-807.379 460.868,-807.379 466.868,-807.379 472.868,-813.379 472.868,-819.379 472.868,-819.379 472.868,-904.379 472.868,-904.379 472.868,-910.379 466.868,-916.379 460.868,-916.379 460.868,-916.379 348.868,-916.379 348.868,-916.379 342.868,-916.379 336.868,-910.379 336.868,-904.379 336.868,-904.379 336.868,-819.379 336.868,-819.379 336.868,-813.379 342.868,-807.379 348.868,-807.379"/>
<text text-anchor="middle" x="404.868" y="-901.179" font-family="Times,serif" font-size="14.00">ApplicationController</text>
<polyline fill="none" stroke="black" points="336.868,-893.379 472.868,-893.379 "/>
<polyline fill="none" stroke="black" points="336.868,-869.379 472.868,-869.379 "/>
<polyline fill="none" stroke="black" points="336.868,-845.379 472.868,-845.379 "/>
<text text-anchor="start" x="344.868" y="-830.179" font-family="Times,serif" font-size="14.00">_layout</text>
<text text-anchor="start" x="344.868" y="-815.179" font-family="Times,serif" font-size="14.00">query_check</text>
</g>
<!-- ProfileController -->
<g id="node4" class="node"><title>ProfileController</title>
<path fill="none" stroke="black" d="M62.3914,-608.838C62.3914,-608.838 147.391,-608.838 147.391,-608.838 153.391,-608.838 159.391,-614.838 159.391,-620.838 159.391,-620.838 159.391,-689.838 159.391,-689.838 159.391,-695.838 153.391,-701.838 147.391,-701.838 147.391,-701.838 62.3914,-701.838 62.3914,-701.838 56.3914,-701.838 50.3914,-695.838 50.3914,-689.838 50.3914,-689.838 50.3914,-620.838 50.3914,-620.838 50.3914,-614.838 56.3914,-608.838 62.3914,-608.838"/>
<text text-anchor="middle" x="104.891" y="-686.638" font-family="Times,serif" font-size="14.00">ProfileController</text>
<polyline fill="none" stroke="black" points="50.3914,-678.838 159.391,-678.838 "/>
<text text-anchor="start" x="58.3914" y="-663.638" font-family="Times,serif" font-size="14.00">show</text>
<polyline fill="none" stroke="black" points="50.3914,-655.838 159.391,-655.838 "/>
<polyline fill="none" stroke="black" points="50.3914,-631.838 159.391,-631.838 "/>
<text text-anchor="start" x="58.3914" y="-616.638" font-family="Times,serif" font-size="14.00">_layout</text>
</g>
<!-- ApplicationController&#45;&gt;ProfileController -->
<g id="edge2" class="edge"><title>ApplicationController&#45;&gt;ProfileController</title>
<path fill="none" stroke="black" d="M336.799,-815.012C283.211,-778.115 209.499,-727.363 159.677,-693.059"/>
</g>
<!-- SubjectsController -->
<g id="node5" class="node"><title>SubjectsController</title>
<path fill="none" stroke="black" d="M537.543,-1473.7C537.543,-1473.7 631.543,-1473.7 631.543,-1473.7 637.543,-1473.7 643.543,-1479.7 643.543,-1485.7 643.543,-1485.7 643.543,-1674.7 643.543,-1674.7 643.543,-1680.7 637.543,-1686.7 631.543,-1686.7 631.543,-1686.7 537.543,-1686.7 537.543,-1686.7 531.543,-1686.7 525.543,-1680.7 525.543,-1674.7 525.543,-1674.7 525.543,-1485.7 525.543,-1485.7 525.543,-1479.7 531.543,-1473.7 537.543,-1473.7"/>
<text text-anchor="middle" x="584.543" y="-1671.5" font-family="Times,serif" font-size="14.00">SubjectsController</text>
<polyline fill="none" stroke="black" points="525.543,-1663.7 643.543,-1663.7 "/>
<text text-anchor="start" x="533.543" y="-1648.5" font-family="Times,serif" font-size="14.00">create</text>
<text text-anchor="start" x="533.543" y="-1633.5" font-family="Times,serif" font-size="14.00">destroy</text>
<text text-anchor="start" x="533.543" y="-1618.5" font-family="Times,serif" font-size="14.00">edit</text>
<text text-anchor="start" x="533.543" y="-1603.5" font-family="Times,serif" font-size="14.00">index</text>
<text text-anchor="start" x="533.543" y="-1588.5" font-family="Times,serif" font-size="14.00">new</text>
<text text-anchor="start" x="533.543" y="-1573.5" font-family="Times,serif" font-size="14.00">show</text>
<text text-anchor="start" x="533.543" y="-1558.5" font-family="Times,serif" font-size="14.00">update</text>
<polyline fill="none" stroke="black" points="525.543,-1550.7 643.543,-1550.7 "/>
<polyline fill="none" stroke="black" points="525.543,-1526.7 643.543,-1526.7 "/>
<text text-anchor="start" x="533.543" y="-1511.5" font-family="Times,serif" font-size="14.00">_layout</text>
<text text-anchor="start" x="533.543" y="-1496.5" font-family="Times,serif" font-size="14.00">set_subject</text>
<text text-anchor="start" x="533.543" y="-1481.5" font-family="Times,serif" font-size="14.00">subject_params</text>
</g>
<!-- ApplicationController&#45;&gt;SubjectsController -->
<g id="edge3" class="edge"><title>ApplicationController&#45;&gt;SubjectsController</title>
<path fill="none" stroke="black" d="M406.596,-916.469C410.525,-1003.34 423.247,-1177.67 464.046,-1319.22 479.214,-1371.85 503.524,-1427.32 526.348,-1473.52"/>
</g>
<!-- UserPreferencesController -->
<g id="node6" class="node"><title>UserPreferencesController</title>
<path fill="none" stroke="black" d="M920.559,-1083.79C920.559,-1083.79 1057.56,-1083.79 1057.56,-1083.79 1063.56,-1083.79 1069.56,-1089.79 1069.56,-1095.79 1069.56,-1095.79 1069.56,-1284.79 1069.56,-1284.79 1069.56,-1290.79 1063.56,-1296.79 1057.56,-1296.79 1057.56,-1296.79 920.559,-1296.79 920.559,-1296.79 914.559,-1296.79 908.559,-1290.79 908.559,-1284.79 908.559,-1284.79 908.559,-1095.79 908.559,-1095.79 908.559,-1089.79 914.559,-1083.79 920.559,-1083.79"/>
<text text-anchor="middle" x="989.059" y="-1281.59" font-family="Times,serif" font-size="14.00">UserPreferencesController</text>
<polyline fill="none" stroke="black" points="908.559,-1273.79 1069.56,-1273.79 "/>
<text text-anchor="start" x="916.559" y="-1258.59" font-family="Times,serif" font-size="14.00">create</text>
<text text-anchor="start" x="916.559" y="-1243.59" font-family="Times,serif" font-size="14.00">destroy</text>
<text text-anchor="start" x="916.559" y="-1228.59" font-family="Times,serif" font-size="14.00">edit</text>
<text text-anchor="start" x="916.559" y="-1213.59" font-family="Times,serif" font-size="14.00">index</text>
<text text-anchor="start" x="916.559" y="-1198.59" font-family="Times,serif" font-size="14.00">new</text>
<text text-anchor="start" x="916.559" y="-1183.59" font-family="Times,serif" font-size="14.00">show</text>
<text text-anchor="start" x="916.559" y="-1168.59" font-family="Times,serif" font-size="14.00">update</text>
<polyline fill="none" stroke="black" points="908.559,-1160.79 1069.56,-1160.79 "/>
<polyline fill="none" stroke="black" points="908.559,-1136.79 1069.56,-1136.79 "/>
<text text-anchor="start" x="916.559" y="-1121.59" font-family="Times,serif" font-size="14.00">_layout</text>
<text text-anchor="start" x="916.559" y="-1106.59" font-family="Times,serif" font-size="14.00">set_user_preference</text>
<text text-anchor="start" x="916.559" y="-1091.59" font-family="Times,serif" font-size="14.00">user_preference_params</text>
</g>
<!-- ApplicationController&#45;&gt;UserPreferencesController -->
<g id="edge4" class="edge"><title>ApplicationController&#45;&gt;UserPreferencesController</title>
<path fill="none" stroke="black" d="M472.988,-915.53C512.625,-945.407 564.281,-982.109 613.207,-1010.12 641.206,-1026.15 650.214,-1026.17 679.446,-1039.82 757.691,-1076.37 846.25,-1119.6 908.55,-1150.32"/>
</g>
<!-- HomePagesController -->
<g id="node7" class="node"><title>HomePagesController</title>
<path fill="none" stroke="black" d="M114.303,-1493.12C114.303,-1493.12 227.303,-1493.12 227.303,-1493.12 233.303,-1493.12 239.303,-1499.12 239.303,-1505.12 239.303,-1505.12 239.303,-1604.12 239.303,-1604.12 239.303,-1610.12 233.303,-1616.12 227.303,-1616.12 227.303,-1616.12 114.303,-1616.12 114.303,-1616.12 108.303,-1616.12 102.303,-1610.12 102.303,-1604.12 102.303,-1604.12 102.303,-1505.12 102.303,-1505.12 102.303,-1499.12 108.303,-1493.12 114.303,-1493.12"/>
<text text-anchor="middle" x="170.803" y="-1600.92" font-family="Times,serif" font-size="14.00">HomePagesController</text>
<polyline fill="none" stroke="black" points="102.303,-1593.12 239.303,-1593.12 "/>
<text text-anchor="start" x="110.303" y="-1577.92" font-family="Times,serif" font-size="14.00">index</text>
<text text-anchor="start" x="110.303" y="-1562.92" font-family="Times,serif" font-size="14.00">search</text>
<text text-anchor="start" x="110.303" y="-1547.92" font-family="Times,serif" font-size="14.00">team</text>
<polyline fill="none" stroke="black" points="102.303,-1540.12 239.303,-1540.12 "/>
<polyline fill="none" stroke="black" points="102.303,-1516.12 239.303,-1516.12 "/>
<text text-anchor="start" x="110.303" y="-1500.92" font-family="Times,serif" font-size="14.00">_layout</text>
</g>
<!-- ApplicationController&#45;&gt;HomePagesController -->
<g id="edge5" class="edge"><title>ApplicationController&#45;&gt;HomePagesController</title>
<path fill="none" stroke="black" d="M386.404,-916.527C343.413,-1043.76 236.858,-1359.12 191.634,-1492.97"/>
</g>
<!-- UploadsController -->
<g id="node8" class="node"><title>UploadsController</title>
<path fill="none" stroke="black" d="M97.6824,-1002.21C97.6824,-1002.21 190.682,-1002.21 190.682,-1002.21 196.682,-1002.21 202.682,-1008.21 202.682,-1014.21 202.682,-1014.21 202.682,-1203.21 202.682,-1203.21 202.682,-1209.21 196.682,-1215.21 190.682,-1215.21 190.682,-1215.21 97.6824,-1215.21 97.6824,-1215.21 91.6824,-1215.21 85.6824,-1209.21 85.6824,-1203.21 85.6824,-1203.21 85.6824,-1014.21 85.6824,-1014.21 85.6824,-1008.21 91.6824,-1002.21 97.6824,-1002.21"/>
<text text-anchor="middle" x="144.182" y="-1200.01" font-family="Times,serif" font-size="14.00">UploadsController</text>
<polyline fill="none" stroke="black" points="85.6824,-1192.21 202.682,-1192.21 "/>
<text text-anchor="start" x="93.6824" y="-1177.01" font-family="Times,serif" font-size="14.00">create</text>
<text text-anchor="start" x="93.6824" y="-1162.01" font-family="Times,serif" font-size="14.00">destroy</text>
<text text-anchor="start" x="93.6824" y="-1147.01" font-family="Times,serif" font-size="14.00">edit</text>
<text text-anchor="start" x="93.6824" y="-1132.01" font-family="Times,serif" font-size="14.00">index</text>
<text text-anchor="start" x="93.6824" y="-1117.01" font-family="Times,serif" font-size="14.00">new</text>
<text text-anchor="start" x="93.6824" y="-1102.01" font-family="Times,serif" font-size="14.00">show</text>
<text text-anchor="start" x="93.6824" y="-1087.01" font-family="Times,serif" font-size="14.00">update</text>
<polyline fill="none" stroke="black" points="85.6824,-1079.21 202.682,-1079.21 "/>
<polyline fill="none" stroke="black" points="85.6824,-1055.21 202.682,-1055.21 "/>
<text text-anchor="start" x="93.6824" y="-1040.01" font-family="Times,serif" font-size="14.00">_layout</text>
<text text-anchor="start" x="93.6824" y="-1025.01" font-family="Times,serif" font-size="14.00">set_upload</text>
<text text-anchor="start" x="93.6824" y="-1010.01" font-family="Times,serif" font-size="14.00">upload_params</text>
</g>
<!-- ApplicationController&#45;&gt;UploadsController -->
<g id="edge6" class="edge"><title>ApplicationController&#45;&gt;UploadsController</title>
<path fill="none" stroke="black" d="M347.013,-916.659C304.113,-957.28 245.852,-1012.44 202.777,-1053.23"/>
</g>
<!-- DeviseController -->
<g id="node15" class="node"><title>DeviseController</title>
<path fill="none" stroke="black" d="M628.407,-629.92C628.407,-629.92 795.407,-629.92 795.407,-629.92 801.407,-629.92 807.407,-635.92 807.407,-641.92 807.407,-641.92 807.407,-994.92 807.407,-994.92 807.407,-1000.92 801.407,-1006.92 795.407,-1006.92 795.407,-1006.92 628.407,-1006.92 628.407,-1006.92 622.407,-1006.92 616.407,-1000.92 616.407,-994.92 616.407,-994.92 616.407,-641.92 616.407,-641.92 616.407,-635.92 622.407,-629.92 628.407,-629.92"/>
<text text-anchor="middle" x="711.907" y="-991.72" font-family="Times,serif" font-size="14.00">DeviseController</text>
<polyline fill="none" stroke="black" points="616.407,-983.92 807.407,-983.92 "/>
<text text-anchor="start" x="624.407" y="-968.72" font-family="Times,serif" font-size="14.00">_prefixes</text>
<polyline fill="none" stroke="black" points="616.407,-960.92 807.407,-960.92 "/>
<text text-anchor="start" x="624.407" y="-945.72" font-family="Times,serif" font-size="14.00">assert_is_devise_resource!</text>
<text text-anchor="start" x="624.407" y="-930.72" font-family="Times,serif" font-size="14.00">clean_up_passwords</text>
<text text-anchor="start" x="624.407" y="-915.72" font-family="Times,serif" font-size="14.00">devise_i18n_options</text>
<text text-anchor="start" x="624.407" y="-900.72" font-family="Times,serif" font-size="14.00">devise_mapping</text>
<text text-anchor="start" x="624.407" y="-885.72" font-family="Times,serif" font-size="14.00">find_message</text>
<text text-anchor="start" x="624.407" y="-870.72" font-family="Times,serif" font-size="14.00">navigational_formats</text>
<text text-anchor="start" x="624.407" y="-855.72" font-family="Times,serif" font-size="14.00">require_no_authentication</text>
<text text-anchor="start" x="624.407" y="-840.72" font-family="Times,serif" font-size="14.00">resource</text>
<text text-anchor="start" x="624.407" y="-825.72" font-family="Times,serif" font-size="14.00">resource=</text>
<text text-anchor="start" x="624.407" y="-810.72" font-family="Times,serif" font-size="14.00">resource_class</text>
<text text-anchor="start" x="624.407" y="-795.72" font-family="Times,serif" font-size="14.00">resource_name</text>
<text text-anchor="start" x="624.407" y="-780.72" font-family="Times,serif" font-size="14.00">resource_params</text>
<text text-anchor="start" x="624.407" y="-765.72" font-family="Times,serif" font-size="14.00">respond_with_navigational</text>
<text text-anchor="start" x="624.407" y="-750.72" font-family="Times,serif" font-size="14.00">scope_name</text>
<text text-anchor="start" x="624.407" y="-735.72" font-family="Times,serif" font-size="14.00">set_flash_message</text>
<text text-anchor="start" x="624.407" y="-720.72" font-family="Times,serif" font-size="14.00">set_minimum_password_length</text>
<text text-anchor="start" x="624.407" y="-705.72" font-family="Times,serif" font-size="14.00">signed_in_resource</text>
<text text-anchor="start" x="624.407" y="-690.72" font-family="Times,serif" font-size="14.00">successfully_sent?</text>
<text text-anchor="start" x="624.407" y="-675.72" font-family="Times,serif" font-size="14.00">translation_scope</text>
<text text-anchor="start" x="624.407" y="-660.72" font-family="Times,serif" font-size="14.00">unknown_action!</text>
<polyline fill="none" stroke="black" points="616.407,-652.92 807.407,-652.92 "/>
<text text-anchor="start" x="624.407" y="-637.72" font-family="Times,serif" font-size="14.00">_layout</text>
</g>
<!-- ApplicationController&#45;&gt;DeviseController -->
<g id="edge13" class="edge"><title>ApplicationController&#45;&gt;DeviseController</title>
<path fill="none" stroke="black" d="M473.01,-852.234C515.146,-846.27 569.865,-838.525 616.3,-831.953"/>
</g>
<!-- RailsAdmin::ApplicationController -->
<g id="node16" class="node"><title>RailsAdmin::ApplicationController</title>
<path fill="none" stroke="black" d="M479.246,-1043.02C479.246,-1043.02 664.246,-1043.02 664.246,-1043.02 670.246,-1043.02 676.246,-1049.02 676.246,-1055.02 676.246,-1055.02 676.246,-1304.02 676.246,-1304.02 676.246,-1310.02 670.246,-1316.02 664.246,-1316.02 664.246,-1316.02 479.246,-1316.02 479.246,-1316.02 473.246,-1316.02 467.246,-1310.02 467.246,-1304.02 467.246,-1304.02 467.246,-1055.02 467.246,-1055.02 467.246,-1049.02 473.246,-1043.02 479.246,-1043.02"/>
<text text-anchor="middle" x="571.746" y="-1300.82" font-family="Times,serif" font-size="14.00">RailsAdmin::ApplicationController</text>
<polyline fill="none" stroke="black" points="467.246,-1293.02 676.246,-1293.02 "/>
<text text-anchor="start" x="475.246" y="-1277.82" font-family="Times,serif" font-size="14.00">_current_user</text>
<text text-anchor="start" x="475.246" y="-1262.82" font-family="Times,serif" font-size="14.00">abstract_model</text>
<text text-anchor="start" x="475.246" y="-1247.82" font-family="Times,serif" font-size="14.00">authorization_adapter</text>
<text text-anchor="start" x="475.246" y="-1232.82" font-family="Times,serif" font-size="14.00">get_model</text>
<text text-anchor="start" x="475.246" y="-1217.82" font-family="Times,serif" font-size="14.00">get_object</text>
<text text-anchor="start" x="475.246" y="-1202.82" font-family="Times,serif" font-size="14.00">model_config</text>
<text text-anchor="start" x="475.246" y="-1187.82" font-family="Times,serif" font-size="14.00">object</text>
<text text-anchor="start" x="475.246" y="-1172.82" font-family="Times,serif" font-size="14.00">to_model_name</text>
<polyline fill="none" stroke="black" points="467.246,-1165.02 676.246,-1165.02 "/>
<polyline fill="none" stroke="black" points="467.246,-1141.02 676.246,-1141.02 "/>
<text text-anchor="start" x="475.246" y="-1125.82" font-family="Times,serif" font-size="14.00">_audit!</text>
<text text-anchor="start" x="475.246" y="-1110.82" font-family="Times,serif" font-size="14.00">_authenticate!</text>
<text text-anchor="start" x="475.246" y="-1095.82" font-family="Times,serif" font-size="14.00">_authorize!</text>
<text text-anchor="start" x="475.246" y="-1080.82" font-family="Times,serif" font-size="14.00">_get_plugin_name</text>
<text text-anchor="start" x="475.246" y="-1065.82" font-family="Times,serif" font-size="14.00">_layout</text>
<text text-anchor="start" x="475.246" y="-1050.82" font-family="Times,serif" font-size="14.00">user_for_paper_trail</text>
</g>
<!-- ApplicationController&#45;&gt;RailsAdmin::ApplicationController -->
<g id="edge14" class="edge"><title>ApplicationController&#45;&gt;RailsAdmin::ApplicationController</title>
<path fill="none" stroke="black" d="M433.555,-916.484C451.867,-951.339 476.478,-998.184 499.855,-1042.68"/>
</g>
<!-- Devise::SessionsController -->
<g id="node9" class="node"><title>Devise::SessionsController</title>
<path fill="none" stroke="black" d="M978.861,-417.504C978.861,-417.504 1118.86,-417.504 1118.86,-417.504 1124.86,-417.504 1130.86,-423.504 1130.86,-429.504 1130.86,-429.504 1130.86,-617.504 1130.86,-617.504 1130.86,-623.504 1124.86,-629.504 1118.86,-629.504 1118.86,-629.504 978.861,-629.504 978.861,-629.504 972.861,-629.504 966.861,-623.504 966.861,-617.504 966.861,-617.504 966.861,-429.504 966.861,-429.504 966.861,-423.504 972.861,-417.504 978.861,-417.504"/>
<text text-anchor="middle" x="1048.86" y="-614.304" font-family="Times,serif" font-size="14.00">Devise::SessionsController</text>
<polyline fill="none" stroke="black" points="966.861,-606.504 1130.86,-606.504 "/>
<text text-anchor="start" x="974.861" y="-591.304" font-family="Times,serif" font-size="14.00">create</text>
<text text-anchor="start" x="974.861" y="-576.304" font-family="Times,serif" font-size="14.00">destroy</text>
<text text-anchor="start" x="974.861" y="-561.304" font-family="Times,serif" font-size="14.00">new</text>
<polyline fill="none" stroke="black" points="966.861,-553.504 1130.86,-553.504 "/>
<text text-anchor="start" x="974.861" y="-538.304" font-family="Times,serif" font-size="14.00">auth_options</text>
<text text-anchor="start" x="974.861" y="-523.304" font-family="Times,serif" font-size="14.00">serialize_options</text>
<text text-anchor="start" x="974.861" y="-508.304" font-family="Times,serif" font-size="14.00">sign_in_params</text>
<text text-anchor="start" x="974.861" y="-493.304" font-family="Times,serif" font-size="14.00">translation_scope</text>
<polyline fill="none" stroke="black" points="966.861,-485.504 1130.86,-485.504 "/>
<text text-anchor="start" x="974.861" y="-470.304" font-family="Times,serif" font-size="14.00">_layout</text>
<text text-anchor="start" x="974.861" y="-455.304" font-family="Times,serif" font-size="14.00">all_signed_out?</text>
<text text-anchor="start" x="974.861" y="-440.304" font-family="Times,serif" font-size="14.00">respond_to_on_destroy</text>
<text text-anchor="start" x="974.861" y="-425.304" font-family="Times,serif" font-size="14.00">verify_signed_out_user</text>
</g>
<!-- Devise::UnlocksController -->
<g id="node10" class="node"><title>Devise::UnlocksController</title>
<path fill="none" stroke="black" d="M291.24,-418.759C291.24,-418.759 523.24,-418.759 523.24,-418.759 529.24,-418.759 535.24,-424.759 535.24,-430.759 535.24,-430.759 535.24,-558.759 535.24,-558.759 535.24,-564.759 529.24,-570.759 523.24,-570.759 523.24,-570.759 291.24,-570.759 291.24,-570.759 285.24,-570.759 279.24,-564.759 279.24,-558.759 279.24,-558.759 279.24,-430.759 279.24,-430.759 279.24,-424.759 285.24,-418.759 291.24,-418.759"/>
<text text-anchor="middle" x="407.24" y="-555.559" font-family="Times,serif" font-size="14.00">Devise::UnlocksController</text>
<polyline fill="none" stroke="black" points="279.24,-547.759 535.24,-547.759 "/>
<text text-anchor="start" x="287.24" y="-532.559" font-family="Times,serif" font-size="14.00">create</text>
<text text-anchor="start" x="287.24" y="-517.559" font-family="Times,serif" font-size="14.00">new</text>
<text text-anchor="start" x="287.24" y="-502.559" font-family="Times,serif" font-size="14.00">show</text>
<polyline fill="none" stroke="black" points="279.24,-494.759 535.24,-494.759 "/>
<text text-anchor="start" x="287.24" y="-479.559" font-family="Times,serif" font-size="14.00">after_sending_unlock_instructions_path_for</text>
<text text-anchor="start" x="287.24" y="-464.559" font-family="Times,serif" font-size="14.00">after_unlock_path_for</text>
<text text-anchor="start" x="287.24" y="-449.559" font-family="Times,serif" font-size="14.00">translation_scope</text>
<polyline fill="none" stroke="black" points="279.24,-441.759 535.24,-441.759 "/>
<text text-anchor="start" x="287.24" y="-426.559" font-family="Times,serif" font-size="14.00">_layout</text>
</g>
<!-- Devise::RegistrationsController -->
<g id="node11" class="node"><title>Devise::RegistrationsController</title>
<path fill="none" stroke="black" d="M633.621,-298.597C633.621,-298.597 802.621,-298.597 802.621,-298.597 808.621,-298.597 814.621,-304.597 814.621,-310.597 814.621,-310.597 814.621,-603.597 814.621,-603.597 814.621,-609.597 808.621,-615.597 802.621,-615.597 802.621,-615.597 633.621,-615.597 633.621,-615.597 627.621,-615.597 621.621,-609.597 621.621,-603.597 621.621,-603.597 621.621,-310.597 621.621,-310.597 621.621,-304.597 627.621,-298.597 633.621,-298.597"/>
<text text-anchor="middle" x="718.121" y="-600.397" font-family="Times,serif" font-size="14.00">Devise::RegistrationsController</text>
<polyline fill="none" stroke="black" points="621.621,-592.597 814.621,-592.597 "/>
<text text-anchor="start" x="629.621" y="-577.397" font-family="Times,serif" font-size="14.00">cancel</text>
<text text-anchor="start" x="629.621" y="-562.397" font-family="Times,serif" font-size="14.00">create</text>
<text text-anchor="start" x="629.621" y="-547.397" font-family="Times,serif" font-size="14.00">destroy</text>
<text text-anchor="start" x="629.621" y="-532.397" font-family="Times,serif" font-size="14.00">edit</text>
<text text-anchor="start" x="629.621" y="-517.397" font-family="Times,serif" font-size="14.00">new</text>
<text text-anchor="start" x="629.621" y="-502.397" font-family="Times,serif" font-size="14.00">update</text>
<polyline fill="none" stroke="black" points="621.621,-494.597 814.621,-494.597 "/>
<text text-anchor="start" x="629.621" y="-479.397" font-family="Times,serif" font-size="14.00">account_update_params</text>
<text text-anchor="start" x="629.621" y="-464.397" font-family="Times,serif" font-size="14.00">after_inactive_sign_up_path_for</text>
<text text-anchor="start" x="629.621" y="-449.397" font-family="Times,serif" font-size="14.00">after_sign_up_path_for</text>
<text text-anchor="start" x="629.621" y="-434.397" font-family="Times,serif" font-size="14.00">after_update_path_for</text>
<text text-anchor="start" x="629.621" y="-419.397" font-family="Times,serif" font-size="14.00">authenticate_scope!</text>
<text text-anchor="start" x="629.621" y="-404.397" font-family="Times,serif" font-size="14.00">build_resource</text>
<text text-anchor="start" x="629.621" y="-389.397" font-family="Times,serif" font-size="14.00">sign_up</text>
<text text-anchor="start" x="629.621" y="-374.397" font-family="Times,serif" font-size="14.00">sign_up_params</text>
<text text-anchor="start" x="629.621" y="-359.397" font-family="Times,serif" font-size="14.00">translation_scope</text>
<text text-anchor="start" x="629.621" y="-344.397" font-family="Times,serif" font-size="14.00">update_needs_confirmation?</text>
<text text-anchor="start" x="629.621" y="-329.397" font-family="Times,serif" font-size="14.00">update_resource</text>
<polyline fill="none" stroke="black" points="621.621,-321.597 814.621,-321.597 "/>
<text text-anchor="start" x="629.621" y="-306.397" font-family="Times,serif" font-size="14.00">_layout</text>
</g>
<!-- Devise::RegistrationsController&#45;&gt;RegistrationsController -->
<g id="edge1" class="edge"><title>Devise::RegistrationsController&#45;&gt;RegistrationsController</title>
<path fill="none" stroke="black" d="M653.295,-298.551C630.402,-242.562 605.994,-182.866 588.357,-139.73"/>
</g>
<!-- Devise::PasswordsController -->
<g id="node12" class="node"><title>Devise::PasswordsController</title>
<path fill="none" stroke="black" d="M862.586,-0.5C862.586,-0.5 1140.59,-0.5 1140.59,-0.5 1146.59,-0.5 1152.59,-6.5 1152.59,-12.5 1152.59,-12.5 1152.59,-185.5 1152.59,-185.5 1152.59,-191.5 1146.59,-197.5 1140.59,-197.5 1140.59,-197.5 862.586,-197.5 862.586,-197.5 856.586,-197.5 850.586,-191.5 850.586,-185.5 850.586,-185.5 850.586,-12.5 850.586,-12.5 850.586,-6.5 856.586,-0.5 862.586,-0.5"/>
<text text-anchor="middle" x="1001.59" y="-182.3" font-family="Times,serif" font-size="14.00">Devise::PasswordsController</text>
<polyline fill="none" stroke="black" points="850.586,-174.5 1152.59,-174.5 "/>
<text text-anchor="start" x="858.586" y="-159.3" font-family="Times,serif" font-size="14.00">create</text>
<text text-anchor="start" x="858.586" y="-144.3" font-family="Times,serif" font-size="14.00">edit</text>
<text text-anchor="start" x="858.586" y="-129.3" font-family="Times,serif" font-size="14.00">new</text>
<text text-anchor="start" x="858.586" y="-114.3" font-family="Times,serif" font-size="14.00">update</text>
<polyline fill="none" stroke="black" points="850.586,-106.5 1152.59,-106.5 "/>
<text text-anchor="start" x="858.586" y="-91.3" font-family="Times,serif" font-size="14.00">after_resetting_password_path_for</text>
<text text-anchor="start" x="858.586" y="-76.3" font-family="Times,serif" font-size="14.00">after_sending_reset_password_instructions_path_for</text>
<text text-anchor="start" x="858.586" y="-61.3" font-family="Times,serif" font-size="14.00">assert_reset_token_passed</text>
<text text-anchor="start" x="858.586" y="-46.3" font-family="Times,serif" font-size="14.00">translation_scope</text>
<text text-anchor="start" x="858.586" y="-31.3" font-family="Times,serif" font-size="14.00">unlockable?</text>
<polyline fill="none" stroke="black" points="850.586,-23.5 1152.59,-23.5 "/>
<text text-anchor="start" x="858.586" y="-8.3" font-family="Times,serif" font-size="14.00">_layout</text>
</g>
<!-- Devise::ConfirmationsController -->
<g id="node13" class="node"><title>Devise::ConfirmationsController</title>
<path fill="none" stroke="black" d="M12,-59.926C12,-59.926 288,-59.926 288,-59.926 294,-59.926 300,-65.926 300,-71.926 300,-71.926 300,-199.926 300,-199.926 300,-205.926 294,-211.926 288,-211.926 288,-211.926 12,-211.926 12,-211.926 6,-211.926 0,-205.926 0,-199.926 0,-199.926 0,-71.926 0,-71.926 0,-65.926 6,-59.926 12,-59.926"/>
<text text-anchor="middle" x="150" y="-196.726" font-family="Times,serif" font-size="14.00">Devise::ConfirmationsController</text>
<polyline fill="none" stroke="black" points="0,-188.926 300,-188.926 "/>
<text text-anchor="start" x="8" y="-173.726" font-family="Times,serif" font-size="14.00">create</text>
<text text-anchor="start" x="8" y="-158.726" font-family="Times,serif" font-size="14.00">new</text>
<text text-anchor="start" x="8" y="-143.726" font-family="Times,serif" font-size="14.00">show</text>
<polyline fill="none" stroke="black" points="0,-135.926 300,-135.926 "/>
<text text-anchor="start" x="8" y="-120.726" font-family="Times,serif" font-size="14.00">after_confirmation_path_for</text>
<text text-anchor="start" x="8" y="-105.726" font-family="Times,serif" font-size="14.00">after_resending_confirmation_instructions_path_for</text>
<text text-anchor="start" x="8" y="-90.726" font-family="Times,serif" font-size="14.00">translation_scope</text>
<polyline fill="none" stroke="black" points="0,-82.926 300,-82.926 "/>
<text text-anchor="start" x="8" y="-67.726" font-family="Times,serif" font-size="14.00">_layout</text>
</g>
<!-- Devise::OmniauthCallbacksController -->
<g id="node14" class="node"><title>Devise::OmniauthCallbacksController</title>
<path fill="none" stroke="black" d="M948.37,-795.083C948.37,-795.083 1149.37,-795.083 1149.37,-795.083 1155.37,-795.083 1161.37,-801.083 1161.37,-807.083 1161.37,-807.083 1161.37,-935.083 1161.37,-935.083 1161.37,-941.083 1155.37,-947.083 1149.37,-947.083 1149.37,-947.083 948.37,-947.083 948.37,-947.083 942.37,-947.083 936.37,-941.083 936.37,-935.083 936.37,-935.083 936.37,-807.083 936.37,-807.083 936.37,-801.083 942.37,-795.083 948.37,-795.083"/>
<text text-anchor="middle" x="1048.87" y="-931.883" font-family="Times,serif" font-size="14.00">Devise::OmniauthCallbacksController</text>
<polyline fill="none" stroke="black" points="936.37,-924.083 1161.37,-924.083 "/>
<text text-anchor="start" x="944.37" y="-908.883" font-family="Times,serif" font-size="14.00">failure</text>
<text text-anchor="start" x="944.37" y="-893.883" font-family="Times,serif" font-size="14.00">passthru</text>
<polyline fill="none" stroke="black" points="936.37,-886.083 1161.37,-886.083 "/>
<text text-anchor="start" x="944.37" y="-870.883" font-family="Times,serif" font-size="14.00">after_omniauth_failure_path_for</text>
<text text-anchor="start" x="944.37" y="-855.883" font-family="Times,serif" font-size="14.00">failed_strategy</text>
<text text-anchor="start" x="944.37" y="-840.883" font-family="Times,serif" font-size="14.00">failure_message</text>
<text text-anchor="start" x="944.37" y="-825.883" font-family="Times,serif" font-size="14.00">translation_scope</text>
<polyline fill="none" stroke="black" points="936.37,-818.083 1161.37,-818.083 "/>
<text text-anchor="start" x="944.37" y="-802.883" font-family="Times,serif" font-size="14.00">_layout</text>
</g>
<!-- DeviseController&#45;&gt;Devise::SessionsController -->
<g id="edge7" class="edge"><title>DeviseController&#45;&gt;Devise::SessionsController</title>
<path fill="none" stroke="black" d="M807.563,-734.698C857.762,-690.762 918.64,-637.479 966.689,-595.425"/>
</g>
<!-- DeviseController&#45;&gt;Devise::UnlocksController -->
<g id="edge8" class="edge"><title>DeviseController&#45;&gt;Devise::UnlocksController</title>
<path fill="none" stroke="black" d="M616.345,-716.9C571.932,-669.718 520.007,-614.555 479.01,-571.004"/>
</g>
<!-- DeviseController&#45;&gt;Devise::RegistrationsController -->
<g id="edge9" class="edge"><title>DeviseController&#45;&gt;Devise::RegistrationsController</title>
<path fill="none" stroke="black" d="M715.151,-629.822C715.232,-625.116 715.313,-620.418 715.393,-615.739"/>
</g>
<!-- DeviseController&#45;&gt;Devise::PasswordsController -->
<g id="edge10" class="edge"><title>DeviseController&#45;&gt;Devise::PasswordsController</title>
<path fill="none" stroke="black" d="M807.425,-641.677C811.026,-633.99 814.508,-626.341 817.821,-618.797 880.652,-475.73 938.078,-303.751 971.442,-197.913"/>
</g>
<!-- DeviseController&#45;&gt;Devise::ConfirmationsController -->
<g id="edge11" class="edge"><title>DeviseController&#45;&gt;Devise::ConfirmationsController</title>
<path fill="none" stroke="black" d="M623.146,-629.692C621.549,-626.035 619.972,-622.4 618.421,-618.797 580.044,-529.635 598.024,-492.192 538.44,-415.559 472.9,-331.264 375.285,-261.138 294.31,-212.195"/>
</g>
<!-- DeviseController&#45;&gt;Devise::OmniauthCallbacksController -->
<g id="edge12" class="edge"><title>DeviseController&#45;&gt;Devise::OmniauthCallbacksController</title>
<path fill="none" stroke="black" d="M807.566,-833.37C847.648,-839.635 894.539,-846.963 936.271,-853.485"/>
</g>
<!-- RailsAdmin::MainController -->
<g id="node17" class="node"><title>RailsAdmin::MainController</title>
<path fill="none" stroke="black" d="M907.056,-1391.35C907.056,-1391.35 1101.06,-1391.35 1101.06,-1391.35 1107.06,-1391.35 1113.06,-1397.35 1113.06,-1403.35 1113.06,-1403.35 1113.06,-1757.35 1113.06,-1757.35 1113.06,-1763.35 1107.06,-1769.35 1101.06,-1769.35 1101.06,-1769.35 907.056,-1769.35 907.056,-1769.35 901.056,-1769.35 895.056,-1763.35 895.056,-1757.35 895.056,-1757.35 895.056,-1403.35 895.056,-1403.35 895.056,-1397.35 901.056,-1391.35 907.056,-1391.35"/>
<text text-anchor="middle" x="1004.06" y="-1754.15" font-family="Times,serif" font-size="14.00">RailsAdmin::MainController</text>
<polyline fill="none" stroke="black" points="895.056,-1746.35 1113.06,-1746.35 "/>
<text text-anchor="start" x="903.056" y="-1731.15" font-family="Times,serif" font-size="14.00">bulk_action</text>
<text text-anchor="start" x="903.056" y="-1716.15" font-family="Times,serif" font-size="14.00">bulk_delete</text>
<text text-anchor="start" x="903.056" y="-1701.15" font-family="Times,serif" font-size="14.00">dashboard</text>
<text text-anchor="start" x="903.056" y="-1686.15" font-family="Times,serif" font-size="14.00">delete</text>
<text text-anchor="start" x="903.056" y="-1671.15" font-family="Times,serif" font-size="14.00">edit</text>
<text text-anchor="start" x="903.056" y="-1656.15" font-family="Times,serif" font-size="14.00">export</text>
<text text-anchor="start" x="903.056" y="-1641.15" font-family="Times,serif" font-size="14.00">index</text>
<text text-anchor="start" x="903.056" y="-1626.15" font-family="Times,serif" font-size="14.00">list_entries</text>
<text text-anchor="start" x="903.056" y="-1611.15" font-family="Times,serif" font-size="14.00">new</text>
<text text-anchor="start" x="903.056" y="-1596.15" font-family="Times,serif" font-size="14.00">show</text>
<text text-anchor="start" x="903.056" y="-1581.15" font-family="Times,serif" font-size="14.00">show_in_app</text>
<polyline fill="none" stroke="black" points="895.056,-1573.35 1113.06,-1573.35 "/>
<polyline fill="none" stroke="black" points="895.056,-1549.35 1113.06,-1549.35 "/>
<text text-anchor="start" x="903.056" y="-1534.15" font-family="Times,serif" font-size="14.00">_layout</text>
<text text-anchor="start" x="903.056" y="-1519.15" font-family="Times,serif" font-size="14.00">back_or_index</text>
<text text-anchor="start" x="903.056" y="-1504.15" font-family="Times,serif" font-size="14.00">check_for_cancel</text>
<text text-anchor="start" x="903.056" y="-1489.15" font-family="Times,serif" font-size="14.00">get_association_scope_from_params</text>
<text text-anchor="start" x="903.056" y="-1474.15" font-family="Times,serif" font-size="14.00">get_collection</text>
<text text-anchor="start" x="903.056" y="-1459.15" font-family="Times,serif" font-size="14.00">get_layout</text>
<text text-anchor="start" x="903.056" y="-1444.15" font-family="Times,serif" font-size="14.00">get_sort_hash</text>
<text text-anchor="start" x="903.056" y="-1429.15" font-family="Times,serif" font-size="14.00">handle_save_error</text>
<text text-anchor="start" x="903.056" y="-1414.15" font-family="Times,serif" font-size="14.00">redirect_to_on_success</text>
<text text-anchor="start" x="903.056" y="-1399.15" font-family="Times,serif" font-size="14.00">sanitize_params_for!</text>
</g>
<!-- RailsAdmin::ApplicationController&#45;&gt;RailsAdmin::MainController -->
<g id="edge15" class="edge"><title>RailsAdmin::ApplicationController&#45;&gt;RailsAdmin::MainController</title>
<path fill="none" stroke="black" d="M676.396,-1276.55C742.492,-1337.83 827.742,-1416.87 894.717,-1478.97"/>
</g>
</g>
</svg>
