<?xml version="1.0" encoding="UTF-8" standalone="no"?>
<!DOCTYPE svg PUBLIC "-//W3C//DTD SVG 1.1//EN"
 "http://www.w3.org/Graphics/SVG/1.1/DTD/svg11.dtd">
<!-- Generated by graphviz version 2.36.0 (20140111.2315)
 -->
<!-- Title: models_diagram Pages: 1 -->
<svg width="536pt" height="374pt"
 viewBox="0.00 0.00 536.00 374.00" xmlns="http://www.w3.org/2000/svg" xmlns:xlink="http://www.w3.org/1999/xlink">
<g id="graph0" class="graph" transform="scale(1 1) rotate(0) translate(4 370)">
<title>models_diagram</title>
<polygon fill="none" stroke="none" points="-4,4 -4,-370 532,-370 532,4 -4,4"/>
<!-- _diagram_info -->
<g id="node1" class="node"><title>_diagram_info</title>
<text text-anchor="start" x="8" y="-351.6" font-family="Times,serif" font-size="13.00">Models diagram</text>
<text text-anchor="start" x="8" y="-337.6" font-family="Times,serif" font-size="13.00">Date: Nov 01 2015 &#45; 12:54</text>
<text text-anchor="start" x="8" y="-323.6" font-family="Times,serif" font-size="13.00">Migration version: 20150925112217</text>
<text text-anchor="start" x="8" y="-309.6" font-family="Times,serif" font-size="13.00">Generated by RailRoady 1.4.1</text>
<text text-anchor="start" x="8" y="-295.6" font-family="Times,serif" font-size="13.00">http://railroady.prestonlee.com</text>
</g>
<!-- User -->
<g id="node2" class="node"><title>User</title>
<ellipse fill="none" stroke="black" cx="319" cy="-162" rx="26.949" ry="18"/>
<text text-anchor="middle" x="319" y="-158.3" font-family="Times,serif" font-size="14.00">User</text>
</g>
<!-- Upload -->
<g id="node3" class="node"><title>Upload</title>
<ellipse fill="none" stroke="black" cx="217" cy="-18" rx="36.096" ry="18"/>
<text text-anchor="middle" x="217" y="-14.3" font-family="Times,serif" font-size="14.00">Upload</text>
</g>
<!-- User&#45;&gt;Upload -->
<g id="edge2" class="edge"><title>User&#45;&gt;Upload</title>
<path fill="none" stroke="#5e44b6" d="M308.426,-136.885C299.711,-118.286 286.323,-92.3813 271,-72 262.591,-60.8155 251.83,-49.7622 242.131,-40.6675"/>
<ellipse fill="none" stroke="#5e44b6" cx="310.196" cy="-140.737" rx="4.00002" ry="4.00002"/>
<polygon fill="#5e44b6" stroke="#5e44b6" points="242.028,-40.5733 237.68,-30.5062 238.336,-37.2009 234.645,-33.8285 234.645,-33.8285 234.645,-33.8285 238.336,-37.2009 231.61,-37.1508 242.028,-40.5733 242.028,-40.5733"/>
</g>
<!-- Subject -->
<g id="node4" class="node"><title>Subject</title>
<ellipse fill="none" stroke="black" cx="225" cy="-90" rx="37.0701" ry="18"/>
<text text-anchor="middle" x="225" y="-86.3" font-family="Times,serif" font-size="14.00">Subject</text>
</g>
<!-- User&#45;&gt;Subject -->
<g id="edge4" class="edge"><title>User&#45;&gt;Subject</title>
<path fill="none" stroke="#9db72b" d="M293.233,-141.812C280.627,-132.424 265.441,-121.115 252.598,-111.552"/>
<polygon fill="#9db72b" stroke="#9db72b" points="293.299,-141.861 298.632,-151.443 297.309,-144.847 301.319,-147.834 301.319,-147.834 301.319,-147.834 297.309,-144.847 304.007,-144.224 293.299,-141.861 293.299,-141.861"/>
<polygon fill="#9db72b" stroke="#9db72b" points="252.569,-111.53 247.236,-101.948 248.558,-108.544 244.548,-105.557 244.548,-105.557 244.548,-105.557 248.558,-108.544 241.86,-109.166 252.569,-111.53 252.569,-111.53"/>
</g>
<!-- UserPreference -->
<g id="node7" class="node"><title>UserPreference</title>
<ellipse fill="none" stroke="black" cx="336" cy="-18" rx="64.4914" ry="18"/>
<text text-anchor="middle" x="336" y="-14.3" font-family="Times,serif" font-size="14.00">UserPreference</text>
</g>
<!-- User&#45;&gt;UserPreference -->
<g id="edge3" class="edge"><title>User&#45;&gt;UserPreference</title>
<path fill="none" stroke="#e727f6" d="M322.046,-135.558C325.052,-110.444 329.635,-72.164 332.721,-46.3932"/>
<ellipse fill="none" stroke="#e727f6" cx="321.526" cy="-139.9" rx="4.00001" ry="4.00001"/>
<polygon fill="#e727f6" stroke="#e727f6" points="332.753,-46.1184 338.41,-36.7242 333.348,-41.1538 333.942,-36.1893 333.942,-36.1893 333.942,-36.1893 333.348,-41.1538 329.474,-35.6543 332.753,-46.1184 332.753,-46.1184"/>
</g>
<!-- Role -->
<g id="node8" class="node"><title>Role</title>
<ellipse fill="none" stroke="black" cx="383" cy="-90" rx="26.949" ry="18"/>
<text text-anchor="middle" x="383" y="-86.3" font-family="Times,serif" font-size="14.00">Role</text>
</g>
<!-- User&#45;&gt;Role -->
<g id="edge1" class="edge"><title>User&#45;&gt;Role</title>
<path fill="none" stroke="#f70dde" d="M339.364,-138.727C346.811,-130.582 355.23,-121.373 362.673,-113.232"/>
<polygon fill="#f70dde" stroke="#f70dde" points="339.32,-138.774 329.252,-143.118 335.947,-142.465 332.573,-146.155 332.573,-146.155 332.573,-146.155 335.947,-142.465 335.894,-149.191 339.32,-138.774 339.32,-138.774"/>
<polygon fill="#f70dde" stroke="#f70dde" points="362.699,-113.204 372.768,-108.86 366.073,-109.514 369.447,-105.824 369.447,-105.824 369.447,-105.824 366.073,-109.514 366.126,-102.787 362.699,-113.204 362.699,-113.204"/>
</g>
<!-- Subject&#45;&gt;Upload -->
<g id="edge7" class="edge"><title>Subject&#45;&gt;Upload</title>
<path fill="none" stroke="#b31280" d="M222.102,-63.6398C221.448,-57.92 220.752,-51.8276 220.09,-46.0416"/>
<ellipse fill="none" stroke="#b31280" cx="222.568" cy="-67.7225" rx="4.00001" ry="4.00001"/>
<polygon fill="#b31280" stroke="#b31280" points="220.09,-46.0397 223.426,-35.5933 219.523,-41.072 218.955,-36.1043 218.955,-36.1043 218.955,-36.1043 219.523,-41.072 214.484,-36.6153 220.09,-46.0397 220.09,-46.0397"/>
</g>
<!-- Subject&#45;&gt;UserPreference -->
<g id="edge8" class="edge"><title>Subject&#45;&gt;UserPreference</title>
<path fill="none" stroke="#77a5d7" d="M253.449,-71.0591C268.282,-61.7049 286.528,-50.1988 302.09,-40.3846"/>
<ellipse fill="none" stroke="#77a5d7" cx="250.049" cy="-73.2034" rx="4.00002" ry="4.00002"/>
<polygon fill="#77a5d7" stroke="#77a5d7" points="302.438,-40.165 313.297,-38.6371 306.668,-37.4979 310.897,-34.8308 310.897,-34.8308 310.897,-34.8308 306.668,-37.4979 308.496,-31.0244 302.438,-40.165 302.438,-40.165"/>
</g>
<!-- Ability -->
<g id="node5" class="node"><title>Ability</title>
<polygon fill="none" stroke="black" points="521.25,-252 466.75,-252 466.75,-216 521.25,-216 521.25,-252"/>
<text text-anchor="middle" x="494" y="-230.3" font-family="Times,serif" font-size="14.00">Ability</text>
</g>
<!-- Branch -->
<g id="node6" class="node"><title>Branch</title>
<ellipse fill="none" stroke="black" cx="281" cy="-234" rx="36.096" ry="18"/>
<text text-anchor="middle" x="281" y="-230.3" font-family="Times,serif" font-size="14.00">Branch</text>
</g>
<!-- Branch&#45;&gt;User -->
<g id="edge11" class="edge"><title>Branch&#45;&gt;User</title>
<path fill="none" stroke="#e75cb1" d="M293.899,-209.238C297.554,-202.506 301.545,-195.154 305.248,-188.333"/>
<ellipse fill="none" stroke="#e75cb1" cx="291.914" cy="-212.896" rx="4.00002" ry="4.00002"/>
<polygon fill="#e75cb1" stroke="#e75cb1" points="305.288,-188.258 314.014,-181.617 307.674,-183.864 310.059,-179.47 310.059,-179.47 310.059,-179.47 307.674,-183.864 306.104,-177.323 305.288,-188.258 305.288,-188.258"/>
</g>
<!-- Branch&#45;&gt;Subject -->
<g id="edge12" class="edge"><title>Branch&#45;&gt;Subject</title>
<path fill="none" stroke="#37ad25" d="M271.36,-208.557C261.346,-183.163 245.727,-143.558 235.429,-117.446"/>
<ellipse fill="none" stroke="#37ad25" cx="272.889" cy="-212.432" rx="4.00001" ry="4.00001"/>
<polygon fill="#37ad25" stroke="#37ad25" points="235.304,-117.128 235.821,-106.174 233.47,-112.476 231.635,-107.825 231.635,-107.825 231.635,-107.825 233.47,-112.476 227.449,-109.476 235.304,-117.128 235.304,-117.128"/>
</g>
<!-- ActiveRecord::Base -->
<g id="node9" class="node"><title>ActiveRecord::Base</title>
<ellipse fill="none" stroke="black" cx="313" cy="-327" rx="81.3646" ry="18"/>
<text text-anchor="middle" x="313" y="-323.3" font-family="Times,serif" font-size="14.00">ActiveRecord::Base</text>
</g>
<!-- ActiveRecord::Base&#45;&gt;User -->
<g id="edge5" class="edge"><title>ActiveRecord::Base&#45;&gt;User</title>
<path fill="none" stroke="black" d="M316.904,-308.768C320.074,-293.842 324.29,-271.622 326,-252 327.389,-236.06 327.05,-231.966 326,-216 325.208,-203.96 323.416,-190.481 321.843,-180.129"/>
</g>
<!-- ActiveRecord::Base&#45;&gt;Upload -->
<g id="edge6" class="edge"><title>ActiveRecord::Base&#45;&gt;Upload</title>
<path fill="none" stroke="black" d="M284.99,-309.998C264.449,-296.895 237.388,-276.55 221,-252 175.391,-183.675 153.86,-150.208 179,-72 183.504,-57.9875 193.233,-44.5391 201.719,-34.6954"/>
</g>
<!-- ActiveRecord::Base&#45;&gt;Subject -->
<g id="edge9" class="edge"><title>ActiveRecord::Base&#45;&gt;Subject</title>
<path fill="none" stroke="black" d="M288.166,-309.793C270.245,-296.583 247.293,-276.193 236,-252 213.484,-203.765 218.331,-138.443 222.327,-107.968"/>
</g>
<!-- ActiveRecord::Base&#45;&gt;Branch -->
<g id="edge13" class="edge"><title>ActiveRecord::Base&#45;&gt;Branch</title>
<path fill="none" stroke="black" d="M306.981,-308.884C301.26,-292.614 292.704,-268.284 286.992,-252.04"/>
</g>
<!-- ActiveRecord::Base&#45;&gt;UserPreference -->
<g id="edge14" class="edge"><title>ActiveRecord::Base&#45;&gt;UserPreference</title>
<path fill="none" stroke="black" d="M325.073,-309.017C349.282,-273.702 402.823,-188.883 419,-108 422.138,-92.3107 426.688,-86.0317 419,-72 409.141,-54.0076 390.288,-41.2375 373.038,-32.7473"/>
</g>
<!-- ActiveRecord::Base&#45;&gt;Role -->
<g id="edge15" class="edge"><title>ActiveRecord::Base&#45;&gt;Role</title>
<path fill="none" stroke="black" d="M319.767,-308.805C325.513,-293.901 333.791,-271.695 340,-252 356.355,-200.127 371.879,-137.614 378.972,-108.064"/>
</g>
<!-- Object -->
<g id="node10" class="node"><title>Object</title>
<ellipse fill="none" stroke="black" cx="494" cy="-327" rx="34.1708" ry="18"/>
<text text-anchor="middle" x="494" y="-323.3" font-family="Times,serif" font-size="14.00">Object</text>
</g>
<!-- Object&#45;&gt;Ability -->
<g id="edge10" class="edge"><title>Object&#45;&gt;Ability</title>
<path fill="none" stroke="black" d="M494,-308.884C494,-292.614 494,-268.284 494,-252.04"/>
</g>
</g>
</svg>
