<?xml version="1.0" encoding="UTF-8" standalone="no"?>
<!DOCTYPE svg PUBLIC "-//W3C//DTD SVG 1.1//EN"
 "http://www.w3.org/Graphics/SVG/1.1/DTD/svg11.dtd">
<!-- Generated by graphviz version 2.36.0 (20140111.2315)
 -->
<!-- Title: models_diagram Pages: 1 -->
<svg width="636pt" height="898pt"
 viewBox="0.00 0.00 636.00 898.00" xmlns="http://www.w3.org/2000/svg" xmlns:xlink="http://www.w3.org/1999/xlink">
<g id="graph0" class="graph" transform="scale(1 1) rotate(0) translate(4 894)">
<title>models_diagram</title>
<polygon fill="none" stroke="none" points="-4,4 -4,-894 632,-894 632,4 -4,4"/>
<!-- _diagram_info -->
<g id="node1" class="node"><title>_diagram_info</title>
<text text-anchor="start" x="8" y="-875.6" font-family="Times,serif" font-size="13.00">Models diagram</text>
<text text-anchor="start" x="8" y="-861.6" font-family="Times,serif" font-size="13.00">Date: Nov 01 2015 &#45; 12:54</text>
<text text-anchor="start" x="8" y="-847.6" font-family="Times,serif" font-size="13.00">Migration version: 20150925112217</text>
<text text-anchor="start" x="8" y="-833.6" font-family="Times,serif" font-size="13.00">Generated by RailRoady 1.4.1</text>
<text text-anchor="start" x="8" y="-819.6" font-family="Times,serif" font-size="13.00">http://railroady.prestonlee.com</text>
</g>
<!-- User -->
<g id="node2" class="node"><title>User</title>
<path fill="none" stroke="black" d="M250,-376.5C250,-376.5 426,-376.5 426,-376.5 432,-376.5 438,-382.5 438,-388.5 438,-388.5 438,-635.5 438,-635.5 438,-641.5 432,-647.5 426,-647.5 426,-647.5 250,-647.5 250,-647.5 244,-647.5 238,-641.5 238,-635.5 238,-635.5 238,-388.5 238,-388.5 238,-382.5 244,-376.5 250,-376.5"/>
<text text-anchor="middle" x="338" y="-632.3" font-family="Times,serif" font-size="14.00">User</text>
<polyline fill="none" stroke="black" points="238,-624.5 438,-624.5 "/>
<text text-anchor="start" x="246" y="-609.3" font-family="Times,serif" font-size="14.00">id :INTEGER</text>
<text text-anchor="start" x="246" y="-594.3" font-family="Times,serif" font-size="14.00">email :varchar</text>
<text text-anchor="start" x="246" y="-579.3" font-family="Times,serif" font-size="14.00">encrypted_password :varchar</text>
<text text-anchor="start" x="246" y="-564.3" font-family="Times,serif" font-size="14.00">reset_password_token :varchar</text>
<text text-anchor="start" x="246" y="-549.3" font-family="Times,serif" font-size="14.00">reset_password_sent_at :datetime</text>
<text text-anchor="start" x="246" y="-534.3" font-family="Times,serif" font-size="14.00">remember_created_at :datetime</text>
<text text-anchor="start" x="246" y="-519.3" font-family="Times,serif" font-size="14.00">sign_in_count :integer</text>
<text text-anchor="start" x="246" y="-504.3" font-family="Times,serif" font-size="14.00">current_sign_in_at :datetime</text>
<text text-anchor="start" x="246" y="-489.3" font-family="Times,serif" font-size="14.00">last_sign_in_at :datetime</text>
<text text-anchor="start" x="246" y="-474.3" font-family="Times,serif" font-size="14.00">current_sign_in_ip :varchar</text>
<text text-anchor="start" x="246" y="-459.3" font-family="Times,serif" font-size="14.00">last_sign_in_ip :varchar</text>
<text text-anchor="start" x="246" y="-444.3" font-family="Times,serif" font-size="14.00">created_at :datetime</text>
<text text-anchor="start" x="246" y="-429.3" font-family="Times,serif" font-size="14.00">updated_at :datetime</text>
<text text-anchor="start" x="246" y="-414.3" font-family="Times,serif" font-size="14.00">name :varchar</text>
<text text-anchor="start" x="246" y="-399.3" font-family="Times,serif" font-size="14.00">branch_id :integer</text>
<text text-anchor="start" x="246" y="-384.3" font-family="Times,serif" font-size="14.00">about_me :text</text>
</g>
<!-- Upload -->
<g id="node3" class="node"><title>Upload</title>
<path fill="none" stroke="black" d="M126.5,-0.5C126.5,-0.5 261.5,-0.5 261.5,-0.5 267.5,-0.5 273.5,-6.5 273.5,-12.5 273.5,-12.5 273.5,-169.5 273.5,-169.5 273.5,-175.5 267.5,-181.5 261.5,-181.5 261.5,-181.5 126.5,-181.5 126.5,-181.5 120.5,-181.5 114.5,-175.5 114.5,-169.5 114.5,-169.5 114.5,-12.5 114.5,-12.5 114.5,-6.5 120.5,-0.5 126.5,-0.5"/>
<text text-anchor="middle" x="194" y="-166.3" font-family="Times,serif" font-size="14.00">Upload</text>
<polyline fill="none" stroke="black" points="114.5,-158.5 273.5,-158.5 "/>
<text text-anchor="start" x="122.5" y="-143.3" font-family="Times,serif" font-size="14.00">id :INTEGER</text>
<text text-anchor="start" x="122.5" y="-128.3" font-family="Times,serif" font-size="14.00">topic :varchar</text>
<text text-anchor="start" x="122.5" y="-113.3" font-family="Times,serif" font-size="14.00">user_id :integer</text>
<text text-anchor="start" x="122.5" y="-98.3" font-family="Times,serif" font-size="14.00">subject_id :integer</text>
<text text-anchor="start" x="122.5" y="-83.3" font-family="Times,serif" font-size="14.00">created_at :datetime</text>
<text text-anchor="start" x="122.5" y="-68.3" font-family="Times,serif" font-size="14.00">updated_at :datetime</text>
<text text-anchor="start" x="122.5" y="-53.3" font-family="Times,serif" font-size="14.00">file_file_name :varchar</text>
<text text-anchor="start" x="122.5" y="-38.3" font-family="Times,serif" font-size="14.00">file_content_type :varchar</text>
<text text-anchor="start" x="122.5" y="-23.3" font-family="Times,serif" font-size="14.00">file_file_size :integer</text>
<text text-anchor="start" x="122.5" y="-8.3" font-family="Times,serif" font-size="14.00">file_updated_at :datetime</text>
</g>
<!-- User&#45;&gt;Upload -->
<g id="edge2" class="edge"><title>User&#45;&gt;Upload</title>
<path fill="none" stroke="#7984b7" d="M324.431,-368.034C316.484,-319.106 303.902,-264.91 284,-218 280.061,-208.717 275.345,-199.449 270.163,-190.391"/>
<ellipse fill="none" stroke="#7984b7" cx="325.091" cy="-372.203" rx="4.00001" ry="4.00001"/>
<polygon fill="#7984b7" stroke="#7984b7" points="270.157,-190.382 268.934,-179.484 267.609,-186.08 265.062,-181.777 265.062,-181.777 265.062,-181.777 267.609,-186.08 261.19,-184.07 270.157,-190.382 270.157,-190.382"/>
</g>
<!-- Subject -->
<g id="node4" class="node"><title>Subject</title>
<path fill="none" stroke="black" d="M156.5,-218.5C156.5,-218.5 263.5,-218.5 263.5,-218.5 269.5,-218.5 275.5,-224.5 275.5,-230.5 275.5,-230.5 275.5,-327.5 275.5,-327.5 275.5,-333.5 269.5,-339.5 263.5,-339.5 263.5,-339.5 156.5,-339.5 156.5,-339.5 150.5,-339.5 144.5,-333.5 144.5,-327.5 144.5,-327.5 144.5,-230.5 144.5,-230.5 144.5,-224.5 150.5,-218.5 156.5,-218.5"/>
<text text-anchor="middle" x="210" y="-324.3" font-family="Times,serif" font-size="14.00">Subject</text>
<polyline fill="none" stroke="black" points="144.5,-316.5 275.5,-316.5 "/>
<text text-anchor="start" x="152.5" y="-301.3" font-family="Times,serif" font-size="14.00">id :INTEGER</text>
<text text-anchor="start" x="152.5" y="-286.3" font-family="Times,serif" font-size="14.00">name :varchar</text>
<text text-anchor="start" x="152.5" y="-271.3" font-family="Times,serif" font-size="14.00">code :varchar</text>
<text text-anchor="start" x="152.5" y="-256.3" font-family="Times,serif" font-size="14.00">created_at :datetime</text>
<text text-anchor="start" x="152.5" y="-241.3" font-family="Times,serif" font-size="14.00">updated_at :datetime</text>
<text text-anchor="start" x="152.5" y="-226.3" font-family="Times,serif" font-size="14.00">branch_id :integer</text>
</g>
<!-- User&#45;&gt;Subject -->
<g id="edge4" class="edge"><title>User&#45;&gt;Subject</title>
<path fill="none" stroke="#fc1f53" d="M258.415,-367.375C254.829,-360.902 251.311,-354.554 247.913,-348.42"/>
<polygon fill="#fc1f53" stroke="#fc1f53" points="258.51,-367.545 259.421,-378.473 260.933,-371.919 263.357,-376.292 263.357,-376.292 263.357,-376.292 260.933,-371.919 267.293,-374.111 258.51,-367.545 258.51,-367.545"/>
<polygon fill="#fc1f53" stroke="#fc1f53" points="247.87,-348.344 246.959,-337.416 245.447,-343.97 243.023,-339.597 243.023,-339.597 243.023,-339.597 245.447,-343.97 239.087,-341.778 247.87,-348.344 247.87,-348.344"/>
</g>
<!-- UserPreference -->
<g id="node7" class="node"><title>UserPreference</title>
<path fill="none" stroke="black" d="M303.5,-38C303.5,-38 410.5,-38 410.5,-38 416.5,-38 422.5,-44 422.5,-50 422.5,-50 422.5,-132 422.5,-132 422.5,-138 416.5,-144 410.5,-144 410.5,-144 303.5,-144 303.5,-144 297.5,-144 291.5,-138 291.5,-132 291.5,-132 291.5,-50 291.5,-50 291.5,-44 297.5,-38 303.5,-38"/>
<text text-anchor="middle" x="357" y="-128.8" font-family="Times,serif" font-size="14.00">UserPreference</text>
<polyline fill="none" stroke="black" points="291.5,-121 422.5,-121 "/>
<text text-anchor="start" x="299.5" y="-105.8" font-family="Times,serif" font-size="14.00">id :INTEGER</text>
<text text-anchor="start" x="299.5" y="-90.8" font-family="Times,serif" font-size="14.00">user_id :integer</text>
<text text-anchor="start" x="299.5" y="-75.8" font-family="Times,serif" font-size="14.00">subject_id :integer</text>
<text text-anchor="start" x="299.5" y="-60.8" font-family="Times,serif" font-size="14.00">created_at :datetime</text>
<text text-anchor="start" x="299.5" y="-45.8" font-family="Times,serif" font-size="14.00">updated_at :datetime</text>
</g>
<!-- User&#45;&gt;UserPreference -->
<g id="edge3" class="edge"><title>User&#45;&gt;UserPreference</title>
<path fill="none" stroke="#aabdd8" d="M344.484,-368.008C347.786,-295.185 351.631,-210.398 354.179,-154.214"/>
<ellipse fill="none" stroke="#aabdd8" cx="344.284" cy="-372.412" rx="4" ry="4"/>
<polygon fill="#aabdd8" stroke="#aabdd8" points="354.186,-154.055 359.134,-144.269 354.413,-149.06 354.639,-144.065 354.639,-144.065 354.639,-144.065 354.413,-149.06 350.144,-143.861 354.186,-154.055 354.186,-154.055"/>
</g>
<!-- Role -->
<g id="node8" class="node"><title>Role</title>
<path fill="none" stroke="black" d="M382,-218.5C382,-218.5 498,-218.5 498,-218.5 504,-218.5 510,-224.5 510,-230.5 510,-230.5 510,-327.5 510,-327.5 510,-333.5 504,-339.5 498,-339.5 498,-339.5 382,-339.5 382,-339.5 376,-339.5 370,-333.5 370,-327.5 370,-327.5 370,-230.5 370,-230.5 370,-224.5 376,-218.5 382,-218.5"/>
<text text-anchor="middle" x="440" y="-324.3" font-family="Times,serif" font-size="14.00">Role</text>
<polyline fill="none" stroke="black" points="370,-316.5 510,-316.5 "/>
<text text-anchor="start" x="378" y="-301.3" font-family="Times,serif" font-size="14.00">id :INTEGER</text>
<text text-anchor="start" x="378" y="-286.3" font-family="Times,serif" font-size="14.00">name :varchar</text>
<text text-anchor="start" x="378" y="-271.3" font-family="Times,serif" font-size="14.00">resource_id :integer</text>
<text text-anchor="start" x="378" y="-256.3" font-family="Times,serif" font-size="14.00">resource_type :varchar</text>
<text text-anchor="start" x="378" y="-241.3" font-family="Times,serif" font-size="14.00">created_at :datetime</text>
<text text-anchor="start" x="378" y="-226.3" font-family="Times,serif" font-size="14.00">updated_at :datetime</text>
</g>
<!-- User&#45;&gt;Role -->
<g id="edge1" class="edge"><title>User&#45;&gt;Role</title>
<path fill="none" stroke="#fcb54b" d="M401.549,-367.08C404.311,-360.825 407.02,-354.69 409.642,-348.752"/>
<polygon fill="#fcb54b" stroke="#fcb54b" points="401.521,-367.144 393.365,-374.474 399.501,-371.718 397.481,-376.292 397.481,-376.292 397.481,-376.292 399.501,-371.718 401.598,-378.11 401.521,-367.144 401.521,-367.144"/>
<polygon fill="#fcb54b" stroke="#fcb54b" points="409.645,-348.745 417.801,-341.414 411.665,-344.171 413.685,-339.597 413.685,-339.597 413.685,-339.597 411.665,-344.171 409.568,-337.779 409.645,-348.745 409.645,-348.745"/>
</g>
<!-- Subject&#45;&gt;Upload -->
<g id="edge7" class="edge"><title>Subject&#45;&gt;Upload</title>
<path fill="none" stroke="#d0b180" d="M204.178,-210.322C203.666,-204.371 203.142,-198.27 202.613,-192.128"/>
<ellipse fill="none" stroke="#d0b180" cx="204.529" cy="-214.396" rx="4" ry="4"/>
<polygon fill="#d0b180" stroke="#d0b180" points="202.579,-191.734 206.206,-181.385 202.151,-186.752 201.722,-181.77 201.722,-181.77 201.722,-181.77 202.151,-186.752 197.239,-182.156 202.579,-191.734 202.579,-191.734"/>
</g>
<!-- Subject&#45;&gt;UserPreference -->
<g id="edge8" class="edge"><title>Subject&#45;&gt;UserPreference</title>
<path fill="none" stroke="#4106b2" d="M262.272,-211.86C277.665,-192.383 294.417,-171.187 309.493,-152.11"/>
<ellipse fill="none" stroke="#4106b2" cx="259.599" cy="-215.243" rx="4.00002" ry="4.00002"/>
<polygon fill="#4106b2" stroke="#4106b2" points="309.643,-151.921 319.374,-146.866 312.743,-147.998 315.843,-144.076 315.843,-144.076 315.843,-144.076 312.743,-147.998 312.313,-141.285 309.643,-151.921 309.643,-151.921"/>
</g>
<!-- Ability -->
<g id="node5" class="node"><title>Ability</title>
<polygon fill="none" stroke="black" points="566.5,-707 566.5,-753 621.5,-753 621.5,-707 566.5,-707"/>
<text text-anchor="middle" x="594" y="-737.8" font-family="Times,serif" font-size="14.00">Ability</text>
<polyline fill="none" stroke="black" points="566.5,-730 621.5,-730 "/>
<text text-anchor="middle" x="594" y="-714.8" font-family="Times,serif" font-size="14.00"> </text>
</g>
<!-- Branch -->
<g id="node6" class="node"><title>Branch</title>
<path fill="none" stroke="black" d="M212.5,-684.5C212.5,-684.5 319.5,-684.5 319.5,-684.5 325.5,-684.5 331.5,-690.5 331.5,-696.5 331.5,-696.5 331.5,-763.5 331.5,-763.5 331.5,-769.5 325.5,-775.5 319.5,-775.5 319.5,-775.5 212.5,-775.5 212.5,-775.5 206.5,-775.5 200.5,-769.5 200.5,-763.5 200.5,-763.5 200.5,-696.5 200.5,-696.5 200.5,-690.5 206.5,-684.5 212.5,-684.5"/>
<text text-anchor="middle" x="266" y="-760.3" font-family="Times,serif" font-size="14.00">Branch</text>
<polyline fill="none" stroke="black" points="200.5,-752.5 331.5,-752.5 "/>
<text text-anchor="start" x="208.5" y="-737.3" font-family="Times,serif" font-size="14.00">id :INTEGER</text>
<text text-anchor="start" x="208.5" y="-722.3" font-family="Times,serif" font-size="14.00">name :varchar</text>
<text text-anchor="start" x="208.5" y="-707.3" font-family="Times,serif" font-size="14.00">created_at :datetime</text>
<text text-anchor="start" x="208.5" y="-692.3" font-family="Times,serif" font-size="14.00">updated_at :datetime</text>
</g>
<!-- Branch&#45;&gt;User -->
<g id="edge11" class="edge"><title>Branch&#45;&gt;User</title>
<path fill="none" stroke="#a35751" d="M283.506,-676.483C285.533,-670.4 287.668,-663.995 289.872,-657.385"/>
<ellipse fill="none" stroke="#a35751" cx="282.183" cy="-680.45" rx="4.00001" ry="4.00001"/>
<polygon fill="#a35751" stroke="#a35751" points="289.982,-657.053 297.414,-648.989 291.564,-652.309 293.145,-647.566 293.145,-647.566 293.145,-647.566 291.564,-652.309 288.876,-646.143 289.982,-657.053 289.982,-657.053"/>
</g>
<!-- Branch&#45;&gt;Subject -->
<g id="edge12" class="edge"><title>Branch&#45;&gt;Subject</title>
<path fill="none" stroke="#9f26eb" d="M238.735,-676.837C234.832,-667.452 231.349,-657.598 229,-648 204.161,-546.514 203.282,-424.742 205.901,-349.872"/>
<ellipse fill="none" stroke="#9f26eb" cx="240.354" cy="-680.577" rx="4.00002" ry="4.00002"/>
<polygon fill="#9f26eb" stroke="#9f26eb" points="205.91,-349.618 210.788,-339.797 206.101,-344.622 206.291,-339.626 206.291,-339.626 206.291,-339.626 206.101,-344.622 201.795,-339.454 205.91,-349.618 205.91,-349.618"/>
</g>
<!-- ActiveRecord::Base -->
<g id="node9" class="node"><title>ActiveRecord::Base</title>
<ellipse fill="none" stroke="black" cx="313" cy="-851" rx="81.3646" ry="18"/>
<text text-anchor="middle" x="313" y="-847.3" font-family="Times,serif" font-size="14.00">ActiveRecord::Base</text>
</g>
<!-- ActiveRecord::Base&#45;&gt;User -->
<g id="edge5" class="edge"><title>ActiveRecord::Base&#45;&gt;User</title>
<path fill="none" stroke="black" d="M321.218,-832.835C327.774,-818.134 336.43,-796.2 340,-776 347.311,-734.633 349.109,-689.032 348.412,-647.583"/>
</g>
<!-- ActiveRecord::Base&#45;&gt;Upload -->
<g id="edge6" class="edge"><title>ActiveRecord::Base&#45;&gt;Upload</title>
<path fill="none" stroke="black" d="M277.63,-834.62C231.958,-814.603 157.829,-781.519 154,-776 12.542,-572.125 81.0984,-460.219 135,-218 137.702,-205.857 141.705,-193.501 146.375,-181.509"/>
</g>
<!-- ActiveRecord::Base&#45;&gt;Subject -->
<g id="edge9" class="edge"><title>ActiveRecord::Base&#45;&gt;Subject</title>
<path fill="none" stroke="black" d="M268.607,-835.816C240.927,-824.407 207.529,-805.357 191,-776 112.364,-636.331 158.026,-437.784 188.877,-339.646"/>
</g>
<!-- ActiveRecord::Base&#45;&gt;Branch -->
<g id="edge13" class="edge"><title>ActiveRecord::Base&#45;&gt;Branch</title>
<path fill="none" stroke="black" d="M306.266,-832.95C300.377,-818.04 291.558,-795.71 283.672,-775.745"/>
</g>
<!-- ActiveRecord::Base&#45;&gt;UserPreference -->
<g id="edge14" class="edge"><title>ActiveRecord::Base&#45;&gt;UserPreference</title>
<path fill="none" stroke="black" d="M345.073,-834.176C368.325,-821.294 399.064,-801.151 419,-776 542.496,-620.2 503.333,-538.191 519,-340 523.273,-285.946 542.823,-266.709 519,-218 498.884,-176.87 458.146,-145.285 422.556,-124.024"/>
</g>
<!-- ActiveRecord::Base&#45;&gt;Role -->
<g id="edge15" class="edge"><title>ActiveRecord::Base&#45;&gt;Role</title>
<path fill="none" stroke="black" d="M329.564,-832.943C359.962,-800.306 423.673,-725.361 447,-648 478.637,-543.077 464.744,-413.578 452.125,-339.519"/>
</g>
<!-- Object -->
<g id="node10" class="node"><title>Object</title>
<ellipse fill="none" stroke="black" cx="594" cy="-851" rx="34.1708" ry="18"/>
<text text-anchor="middle" x="594" y="-847.3" font-family="Times,serif" font-size="14.00">Object</text>
</g>
<!-- Object&#45;&gt;Ability -->
<g id="edge10" class="edge"><title>Object&#45;&gt;Ability</title>
<path fill="none" stroke="black" d="M594,-832.95C594,-811.999 594,-776.396 594,-753.294"/>
</g>
</g>
</svg>
