<?xml version="1.0" encoding="UTF-8" standalone="no"?>
<!DOCTYPE svg PUBLIC "-//W3C//DTD SVG 1.1//EN"
 "http://www.w3.org/Graphics/SVG/1.1/DTD/svg11.dtd">
<!-- Generated by graphviz version 2.36.0 (20140111.2315)
 -->
<!-- Title: models_diagram Pages: 1 -->
<svg width="650pt" height="846pt"
 viewBox="0.00 0.00 650.00 846.00" xmlns="http://www.w3.org/2000/svg" xmlns:xlink="http://www.w3.org/1999/xlink">
<g id="graph0" class="graph" transform="scale(1 1) rotate(0) translate(4 842)">
<title>models_diagram</title>
<polygon fill="none" stroke="none" points="-4,4 -4,-842 646,-842 646,4 -4,4"/>
<!-- _diagram_info -->
<g id="node1" class="node"><title>_diagram_info</title>
<text text-anchor="start" x="43" y="-801.6" font-family="Times,serif" font-size="13.00">Models diagram</text>
<text text-anchor="start" x="43" y="-787.6" font-family="Times,serif" font-size="13.00">Date: Apr 07 2016 &#45; 12:24</text>
<text text-anchor="start" x="43" y="-773.6" font-family="Times,serif" font-size="13.00">Migration version: 20151219195850</text>
<text text-anchor="start" x="43" y="-759.6" font-family="Times,serif" font-size="13.00">Generated by RailRoady 1.4.2</text>
<text text-anchor="start" x="43" y="-745.6" font-family="Times,serif" font-size="13.00">http://railroady.prestonlee.com</text>
</g>
<!-- User -->
<g id="node2" class="node"><title>User</title>
<path fill="none" stroke="black" d="M170,-408.5C170,-408.5 360,-408.5 360,-408.5 366,-408.5 372,-414.5 372,-420.5 372,-420.5 372,-667.5 372,-667.5 372,-673.5 366,-679.5 360,-679.5 360,-679.5 170,-679.5 170,-679.5 164,-679.5 158,-673.5 158,-667.5 158,-667.5 158,-420.5 158,-420.5 158,-414.5 164,-408.5 170,-408.5"/>
<text text-anchor="middle" x="265" y="-664.3" font-family="Times,serif" font-size="14.00">User</text>
<polyline fill="none" stroke="black" points="158,-656.5 372,-656.5 "/>
<text text-anchor="start" x="166" y="-641.3" font-family="Times,serif" font-size="14.00">id :int(11)</text>
<text text-anchor="start" x="166" y="-626.3" font-family="Times,serif" font-size="14.00">email :varchar(255)</text>
<text text-anchor="start" x="166" y="-611.3" font-family="Times,serif" font-size="14.00">encrypted_password :varchar(255)</text>
<text text-anchor="start" x="166" y="-596.3" font-family="Times,serif" font-size="14.00">reset_password_token :varchar(255)</text>
<text text-anchor="start" x="166" y="-581.3" font-family="Times,serif" font-size="14.00">reset_password_sent_at :datetime</text>
<text text-anchor="start" x="166" y="-566.3" font-family="Times,serif" font-size="14.00">remember_created_at :datetime</text>
<text text-anchor="start" x="166" y="-551.3" font-family="Times,serif" font-size="14.00">sign_in_count :int(11)</text>
<text text-anchor="start" x="166" y="-536.3" font-family="Times,serif" font-size="14.00">current_sign_in_at :datetime</text>
<text text-anchor="start" x="166" y="-521.3" font-family="Times,serif" font-size="14.00">last_sign_in_at :datetime</text>
<text text-anchor="start" x="166" y="-506.3" font-family="Times,serif" font-size="14.00">current_sign_in_ip :varchar(255)</text>
<text text-anchor="start" x="166" y="-491.3" font-family="Times,serif" font-size="14.00">last_sign_in_ip :varchar(255)</text>
<text text-anchor="start" x="166" y="-476.3" font-family="Times,serif" font-size="14.00">created_at :datetime</text>
<text text-anchor="start" x="166" y="-461.3" font-family="Times,serif" font-size="14.00">updated_at :datetime</text>
<text text-anchor="start" x="166" y="-446.3" font-family="Times,serif" font-size="14.00">name :varchar(255)</text>
<text text-anchor="start" x="166" y="-431.3" font-family="Times,serif" font-size="14.00">branch_id :int(11)</text>
<text text-anchor="start" x="166" y="-416.3" font-family="Times,serif" font-size="14.00">about_me :text</text>
</g>
<!-- Upload -->
<g id="node3" class="node"><title>Upload</title>
<path fill="none" stroke="black" d="M12,-1C12,-1 176,-1 176,-1 182,-1 188,-7 188,-13 188,-13 188,-185 188,-185 188,-191 182,-197 176,-197 176,-197 12,-197 12,-197 6,-197 0,-191 0,-185 0,-185 0,-13 0,-13 0,-7 6,-1 12,-1"/>
<text text-anchor="middle" x="94" y="-181.8" font-family="Times,serif" font-size="14.00">Upload</text>
<polyline fill="none" stroke="black" points="0,-174 188,-174 "/>
<text text-anchor="start" x="8" y="-158.8" font-family="Times,serif" font-size="14.00">id :int(11)</text>
<text text-anchor="start" x="8" y="-143.8" font-family="Times,serif" font-size="14.00">topic :varchar(255)</text>
<text text-anchor="start" x="8" y="-128.8" font-family="Times,serif" font-size="14.00">user_id :int(11)</text>
<text text-anchor="start" x="8" y="-113.8" font-family="Times,serif" font-size="14.00">subject_id :int(11)</text>
<text text-anchor="start" x="8" y="-98.8" font-family="Times,serif" font-size="14.00">created_at :datetime</text>
<text text-anchor="start" x="8" y="-83.8" font-family="Times,serif" font-size="14.00">updated_at :datetime</text>
<text text-anchor="start" x="8" y="-68.8" font-family="Times,serif" font-size="14.00">file_file_name :varchar(255)</text>
<text text-anchor="start" x="8" y="-53.8" font-family="Times,serif" font-size="14.00">file_content_type :varchar(255)</text>
<text text-anchor="start" x="8" y="-38.8" font-family="Times,serif" font-size="14.00">file_file_size :int(11)</text>
<text text-anchor="start" x="8" y="-23.8" font-family="Times,serif" font-size="14.00">file_updated_at :datetime</text>
<text text-anchor="start" x="8" y="-8.8" font-family="Times,serif" font-size="14.00">approved :tinyint(1)</text>
</g>
<!-- User&#45;&gt;Upload -->
<g id="edge2" class="edge"><title>User&#45;&gt;Upload</title>
<path fill="none" stroke="#cbf65c" d="M151.456,-465.815C122.34,-439.748 94.8039,-407.997 79,-372 56.54,-320.842 58.0035,-258.976 66.0936,-207.179"/>
<ellipse fill="none" stroke="#cbf65c" cx="154.684" cy="-468.65" rx="4.00002" ry="4.00002"/>
<polygon fill="#cbf65c" stroke="#cbf65c" points="66.0966,-207.16 72.1748,-198.033 66.9162,-202.228 67.7357,-197.296 67.7357,-197.296 67.7357,-197.296 66.9162,-202.228 63.2965,-196.558 66.0966,-207.16 66.0966,-207.16"/>
</g>
<!-- Subject -->
<g id="node4" class="node"><title>Subject</title>
<path fill="none" stroke="black" d="M326.5,-235C326.5,-235 433.5,-235 433.5,-235 439.5,-235 445.5,-241 445.5,-247 445.5,-247 445.5,-359 445.5,-359 445.5,-365 439.5,-371 433.5,-371 433.5,-371 326.5,-371 326.5,-371 320.5,-371 314.5,-365 314.5,-359 314.5,-359 314.5,-247 314.5,-247 314.5,-241 320.5,-235 326.5,-235"/>
<text text-anchor="middle" x="380" y="-355.8" font-family="Times,serif" font-size="14.00">Subject</text>
<polyline fill="none" stroke="black" points="314.5,-348 445.5,-348 "/>
<text text-anchor="start" x="322.5" y="-332.8" font-family="Times,serif" font-size="14.00">id :int(11)</text>
<text text-anchor="start" x="322.5" y="-317.8" font-family="Times,serif" font-size="14.00">name :varchar(255)</text>
<text text-anchor="start" x="322.5" y="-302.8" font-family="Times,serif" font-size="14.00">code :varchar(255)</text>
<text text-anchor="start" x="322.5" y="-287.8" font-family="Times,serif" font-size="14.00">created_at :datetime</text>
<text text-anchor="start" x="322.5" y="-272.8" font-family="Times,serif" font-size="14.00">updated_at :datetime</text>
<text text-anchor="start" x="322.5" y="-257.8" font-family="Times,serif" font-size="14.00">branch_id :int(11)</text>
<text text-anchor="start" x="322.5" y="-242.8" font-family="Times,serif" font-size="14.00">slug :varchar(255)</text>
</g>
<!-- User&#45;&gt;Subject -->
<g id="edge4" class="edge"><title>User&#45;&gt;Subject</title>
<path fill="none" stroke="#52d0c8" d="M334.193,-399.2C337.23,-392.887 340.222,-386.668 343.133,-380.619"/>
<polygon fill="#52d0c8" stroke="#52d0c8" points="334.063,-399.47 325.672,-406.53 331.895,-403.976 329.727,-408.481 329.727,-408.481 329.727,-408.481 331.895,-403.976 333.782,-410.432 334.063,-399.47 334.063,-399.47"/>
<polygon fill="#52d0c8" stroke="#52d0c8" points="343.299,-380.274 351.69,-373.214 345.467,-375.768 347.635,-371.262 347.635,-371.262 347.635,-371.262 345.467,-375.768 343.58,-369.311 343.299,-380.274 343.299,-380.274"/>
</g>
<!-- Link -->
<g id="node6" class="node"><title>Link</title>
<path fill="none" stroke="black" d="M410.5,-23.5C410.5,-23.5 517.5,-23.5 517.5,-23.5 523.5,-23.5 529.5,-29.5 529.5,-35.5 529.5,-35.5 529.5,-162.5 529.5,-162.5 529.5,-168.5 523.5,-174.5 517.5,-174.5 517.5,-174.5 410.5,-174.5 410.5,-174.5 404.5,-174.5 398.5,-168.5 398.5,-162.5 398.5,-162.5 398.5,-35.5 398.5,-35.5 398.5,-29.5 404.5,-23.5 410.5,-23.5"/>
<text text-anchor="middle" x="464" y="-159.3" font-family="Times,serif" font-size="14.00">Link</text>
<polyline fill="none" stroke="black" points="398.5,-151.5 529.5,-151.5 "/>
<text text-anchor="start" x="406.5" y="-136.3" font-family="Times,serif" font-size="14.00">id :int(11)</text>
<text text-anchor="start" x="406.5" y="-121.3" font-family="Times,serif" font-size="14.00">topic :varchar(255)</text>
<text text-anchor="start" x="406.5" y="-106.3" font-family="Times,serif" font-size="14.00">url :varchar(255)</text>
<text text-anchor="start" x="406.5" y="-91.3" font-family="Times,serif" font-size="14.00">user_id :int(11)</text>
<text text-anchor="start" x="406.5" y="-76.3" font-family="Times,serif" font-size="14.00">subject_id :int(11)</text>
<text text-anchor="start" x="406.5" y="-61.3" font-family="Times,serif" font-size="14.00">created_at :datetime</text>
<text text-anchor="start" x="406.5" y="-46.3" font-family="Times,serif" font-size="14.00">updated_at :datetime</text>
<text text-anchor="start" x="406.5" y="-31.3" font-family="Times,serif" font-size="14.00">approved :tinyint(1)</text>
</g>
<!-- User&#45;&gt;Link -->
<g id="edge5" class="edge"><title>User&#45;&gt;Link</title>
<path fill="none" stroke="#979245" d="M378.575,-466.565C408.474,-440.345 437.075,-408.322 454,-372 481.15,-313.734 482.27,-240.587 477.357,-184.827"/>
<ellipse fill="none" stroke="#979245" cx="375.21" cy="-469.461" rx="4.00002" ry="4.00002"/>
<polygon fill="#979245" stroke="#979245" points="477.333,-184.579 480.854,-174.194 476.854,-179.602 476.374,-174.625 476.374,-174.625 476.374,-174.625 476.854,-179.602 471.895,-175.057 477.333,-184.579 477.333,-184.579"/>
</g>
<!-- UserPreference -->
<g id="node8" class="node"><title>UserPreference</title>
<path fill="none" stroke="black" d="M242.5,-46C242.5,-46 349.5,-46 349.5,-46 355.5,-46 361.5,-52 361.5,-58 361.5,-58 361.5,-140 361.5,-140 361.5,-146 355.5,-152 349.5,-152 349.5,-152 242.5,-152 242.5,-152 236.5,-152 230.5,-146 230.5,-140 230.5,-140 230.5,-58 230.5,-58 230.5,-52 236.5,-46 242.5,-46"/>
<text text-anchor="middle" x="296" y="-136.8" font-family="Times,serif" font-size="14.00">UserPreference</text>
<polyline fill="none" stroke="black" points="230.5,-129 361.5,-129 "/>
<text text-anchor="start" x="238.5" y="-113.8" font-family="Times,serif" font-size="14.00">id :int(11)</text>
<text text-anchor="start" x="238.5" y="-98.8" font-family="Times,serif" font-size="14.00">user_id :int(11)</text>
<text text-anchor="start" x="238.5" y="-83.8" font-family="Times,serif" font-size="14.00">subject_id :int(11)</text>
<text text-anchor="start" x="238.5" y="-68.8" font-family="Times,serif" font-size="14.00">created_at :datetime</text>
<text text-anchor="start" x="238.5" y="-53.8" font-family="Times,serif" font-size="14.00">updated_at :datetime</text>
</g>
<!-- User&#45;&gt;UserPreference -->
<g id="edge3" class="edge"><title>User&#45;&gt;UserPreference</title>
<path fill="none" stroke="#572c17" d="M274.998,-400.132C280.607,-319.969 287.322,-224.017 291.622,-162.558"/>
<ellipse fill="none" stroke="#572c17" cx="274.707" cy="-404.291" rx="4" ry="4"/>
<polygon fill="#572c17" stroke="#572c17" points="291.646,-162.223 296.833,-152.562 291.995,-157.235 292.344,-152.247 292.344,-152.247 292.344,-152.247 291.995,-157.235 287.855,-151.933 291.646,-162.223 291.646,-162.223"/>
</g>
<!-- Role -->
<g id="node9" class="node"><title>Role</title>
<path fill="none" stroke="black" d="M100,-242.5C100,-242.5 246,-242.5 246,-242.5 252,-242.5 258,-248.5 258,-254.5 258,-254.5 258,-351.5 258,-351.5 258,-357.5 252,-363.5 246,-363.5 246,-363.5 100,-363.5 100,-363.5 94,-363.5 88,-357.5 88,-351.5 88,-351.5 88,-254.5 88,-254.5 88,-248.5 94,-242.5 100,-242.5"/>
<text text-anchor="middle" x="173" y="-348.3" font-family="Times,serif" font-size="14.00">Role</text>
<polyline fill="none" stroke="black" points="88,-340.5 258,-340.5 "/>
<text text-anchor="start" x="96" y="-325.3" font-family="Times,serif" font-size="14.00">id :int(11)</text>
<text text-anchor="start" x="96" y="-310.3" font-family="Times,serif" font-size="14.00">name :varchar(255)</text>
<text text-anchor="start" x="96" y="-295.3" font-family="Times,serif" font-size="14.00">resource_id :int(11)</text>
<text text-anchor="start" x="96" y="-280.3" font-family="Times,serif" font-size="14.00">resource_type :varchar(255)</text>
<text text-anchor="start" x="96" y="-265.3" font-family="Times,serif" font-size="14.00">created_at :datetime</text>
<text text-anchor="start" x="96" y="-250.3" font-family="Times,serif" font-size="14.00">updated_at :datetime</text>
</g>
<!-- User&#45;&gt;Role -->
<g id="edge1" class="edge"><title>User&#45;&gt;Role</title>
<path fill="none" stroke="#4a5064" d="M209.554,-398.961C206.132,-390.072 202.783,-381.371 199.587,-373.069"/>
<polygon fill="#4a5064" stroke="#4a5064" points="209.626,-399.149 209.019,-410.098 211.422,-403.815 213.219,-408.481 213.219,-408.481 213.219,-408.481 211.422,-403.815 217.418,-406.865 209.626,-399.149 209.626,-399.149"/>
<polygon fill="#4a5064" stroke="#4a5064" points="199.503,-372.85 200.11,-361.901 197.707,-368.184 195.911,-363.518 195.911,-363.518 195.911,-363.518 197.707,-368.184 191.711,-365.134 199.503,-372.85 199.503,-372.85"/>
</g>
<!-- Subject&#45;&gt;Upload -->
<g id="edge6" class="edge"><title>Subject&#45;&gt;Upload</title>
<path fill="none" stroke="#29ee86" d="M307.529,-255.845C280.408,-238.17 249.516,-217.552 222,-198 213.615,-192.042 204.999,-185.774 196.392,-179.409"/>
<ellipse fill="none" stroke="#29ee86" cx="310.985" cy="-258.093" rx="4.00002" ry="4.00002"/>
<polygon fill="#29ee86" stroke="#29ee86" points="196.176,-179.249 190.834,-169.672 192.162,-176.266 188.149,-173.284 188.149,-173.284 188.149,-173.284 192.162,-176.266 185.465,-176.896 196.176,-179.249 196.176,-179.249"/>
</g>
<!-- Subject&#45;&gt;Link -->
<g id="edge7" class="edge"><title>Subject&#45;&gt;Link</title>
<path fill="none" stroke="#f73313" d="M411.203,-226.964C417.035,-212.939 423.165,-198.198 429.101,-183.925"/>
<ellipse fill="none" stroke="#f73313" cx="409.507" cy="-231.044" rx="4.00001" ry="4.00001"/>
<polygon fill="#f73313" stroke="#f73313" points="429.128,-183.859 437.123,-176.353 431.048,-179.242 432.968,-174.626 432.968,-174.626 432.968,-174.626 431.048,-179.242 428.813,-172.898 429.128,-183.859 429.128,-183.859"/>
</g>
<!-- Subject&#45;&gt;UserPreference -->
<g id="edge8" class="edge"><title>Subject&#45;&gt;UserPreference</title>
<path fill="none" stroke="#aa107b" d="M348.852,-227.096C339.88,-205.522 330.2,-182.242 321.605,-161.575"/>
<ellipse fill="none" stroke="#aa107b" cx="350.493" cy="-231.044" rx="4.00001" ry="4.00001"/>
<polygon fill="#aa107b" stroke="#aa107b" points="321.579,-161.512 321.895,-150.551 319.659,-156.895 317.74,-152.279 317.74,-152.279 317.74,-152.279 319.659,-156.895 313.585,-154.006 321.579,-161.512 321.579,-161.512"/>
</g>
<!-- Ability -->
<g id="node5" class="node"><title>Ability</title>
<polygon fill="none" stroke="black" points="416.5,-754 416.5,-800 471.5,-800 471.5,-754 416.5,-754"/>
<text text-anchor="middle" x="444" y="-784.8" font-family="Times,serif" font-size="14.00">Ability</text>
<polyline fill="none" stroke="black" points="416.5,-777 471.5,-777 "/>
<text text-anchor="middle" x="444" y="-761.8" font-family="Times,serif" font-size="14.00"> </text>
</g>
<!-- Branch -->
<g id="node7" class="node"><title>Branch</title>
<path fill="none" stroke="black" d="M279.5,-724C279.5,-724 386.5,-724 386.5,-724 392.5,-724 398.5,-730 398.5,-736 398.5,-736 398.5,-818 398.5,-818 398.5,-824 392.5,-830 386.5,-830 386.5,-830 279.5,-830 279.5,-830 273.5,-830 267.5,-824 267.5,-818 267.5,-818 267.5,-736 267.5,-736 267.5,-730 273.5,-724 279.5,-724"/>
<text text-anchor="middle" x="333" y="-814.8" font-family="Times,serif" font-size="14.00">Branch</text>
<polyline fill="none" stroke="black" points="267.5,-807 398.5,-807 "/>
<text text-anchor="start" x="275.5" y="-791.8" font-family="Times,serif" font-size="14.00">id :int(11)</text>
<text text-anchor="start" x="275.5" y="-776.8" font-family="Times,serif" font-size="14.00">name :varchar(255)</text>
<text text-anchor="start" x="275.5" y="-761.8" font-family="Times,serif" font-size="14.00">created_at :datetime</text>
<text text-anchor="start" x="275.5" y="-746.8" font-family="Times,serif" font-size="14.00">updated_at :datetime</text>
<text text-anchor="start" x="275.5" y="-731.8" font-family="Times,serif" font-size="14.00">slug :varchar(255)</text>
</g>
<!-- Branch&#45;&gt;User -->
<g id="edge9" class="edge"><title>Branch&#45;&gt;User</title>
<path fill="none" stroke="#d06cd4" d="M315.38,-716.144C312.891,-707.689 310.249,-698.712 307.528,-689.47"/>
<ellipse fill="none" stroke="#d06cd4" cx="316.525" cy="-720.034" rx="4.00001" ry="4.00001"/>
<polygon fill="#d06cd4" stroke="#d06cd4" points="307.492,-689.347 308.985,-678.483 306.08,-684.551 304.668,-679.754 304.668,-679.754 304.668,-679.754 306.08,-684.551 300.351,-681.025 307.492,-689.347 307.492,-689.347"/>
</g>
<!-- Branch&#45;&gt;Subject -->
<g id="edge10" class="edge"><title>Branch&#45;&gt;Subject</title>
<path fill="none" stroke="#1c994b" d="M367.377,-716.229C372.601,-704.558 377.183,-692.16 380,-680 403.439,-578.818 397.743,-458.168 390.073,-381.333"/>
<ellipse fill="none" stroke="#1c994b" cx="365.55" cy="-720.157" rx="4.00002" ry="4.00002"/>
<polygon fill="#1c994b" stroke="#1c994b" points="390.06,-381.202 393.507,-370.792 389.545,-376.228 389.031,-371.255 389.031,-371.255 389.031,-371.255 389.545,-376.228 384.555,-371.718 390.06,-381.202 390.06,-381.202"/>
</g>
<!-- Feedback -->
<g id="node10" class="node"><title>Feedback</title>
<path fill="none" stroke="black" d="M501.5,-716.5C501.5,-716.5 630.5,-716.5 630.5,-716.5 636.5,-716.5 642.5,-722.5 642.5,-728.5 642.5,-728.5 642.5,-825.5 642.5,-825.5 642.5,-831.5 636.5,-837.5 630.5,-837.5 630.5,-837.5 501.5,-837.5 501.5,-837.5 495.5,-837.5 489.5,-831.5 489.5,-825.5 489.5,-825.5 489.5,-728.5 489.5,-728.5 489.5,-722.5 495.5,-716.5 501.5,-716.5"/>
<text text-anchor="middle" x="566" y="-822.3" font-family="Times,serif" font-size="14.00">Feedback</text>
<polyline fill="none" stroke="black" points="489.5,-814.5 642.5,-814.5 "/>
<text text-anchor="start" x="497.5" y="-799.3" font-family="Times,serif" font-size="14.00">id :int(11)</text>
<text text-anchor="start" x="497.5" y="-784.3" font-family="Times,serif" font-size="14.00">user_name :varchar(255)</text>
<text text-anchor="start" x="497.5" y="-769.3" font-family="Times,serif" font-size="14.00">email :varchar(255)</text>
<text text-anchor="start" x="497.5" y="-754.3" font-family="Times,serif" font-size="14.00">content :text</text>
<text text-anchor="start" x="497.5" y="-739.3" font-family="Times,serif" font-size="14.00">created_at :datetime</text>
<text text-anchor="start" x="497.5" y="-724.3" font-family="Times,serif" font-size="14.00">updated_at :datetime</text>
</g>
</g>
</svg>
