<?xml version="1.0" encoding="UTF-8" standalone="no"?>
<!DOCTYPE svg PUBLIC "-//W3C//DTD SVG 1.1//EN"
 "http://www.w3.org/Graphics/SVG/1.1/DTD/svg11.dtd">
<!-- Generated by graphviz version 2.36.0 (20140111.2315)
 -->
<!-- Title: models_diagram Pages: 1 -->
<svg width="491pt" height="302pt"
 viewBox="0.00 0.00 491.00 302.00" xmlns="http://www.w3.org/2000/svg" xmlns:xlink="http://www.w3.org/1999/xlink">
<g id="graph0" class="graph" transform="scale(1 1) rotate(0) translate(4 298)">
<title>models_diagram</title>
<polygon fill="none" stroke="none" points="-4,4 -4,-298 487,-298 487,4 -4,4"/>
<!-- _diagram_info -->
<g id="node1" class="node"><title>_diagram_info</title>
<text text-anchor="start" x="7" y="-279.6" font-family="Times,serif" font-size="13.00">Models diagram</text>
<text text-anchor="start" x="7" y="-265.6" font-family="Times,serif" font-size="13.00">Date: Apr 07 2016 &#45; 12:24</text>
<text text-anchor="start" x="7" y="-251.6" font-family="Times,serif" font-size="13.00">Migration version: 20151219195850</text>
<text text-anchor="start" x="7" y="-237.6" font-family="Times,serif" font-size="13.00">Generated by RailRoady 1.4.2</text>
<text text-anchor="start" x="7" y="-223.6" font-family="Times,serif" font-size="13.00">http://railroady.prestonlee.com</text>
</g>
<!-- User -->
<g id="node2" class="node"><title>User</title>
<ellipse fill="none" stroke="black" cx="234" cy="-162" rx="26.949" ry="18"/>
<text text-anchor="middle" x="234" y="-158.3" font-family="Times,serif" font-size="14.00">User</text>
</g>
<!-- Upload -->
<g id="node3" class="node"><title>Upload</title>
<ellipse fill="none" stroke="black" cx="127" cy="-18" rx="36.096" ry="18"/>
<text text-anchor="middle" x="127" y="-14.3" font-family="Times,serif" font-size="14.00">Upload</text>
</g>
<!-- User&#45;&gt;Upload -->
<g id="edge2" class="edge"><title>User&#45;&gt;Upload</title>
<path fill="none" stroke="#7a8ab8" d="M201.975,-150.95C181.251,-142.743 155.515,-129.017 141,-108 128.533,-89.949 125.524,-64.963 125.352,-46.0591"/>
<ellipse fill="none" stroke="#7a8ab8" cx="205.894" cy="-152.422" rx="4.00001" ry="4.00001"/>
<polygon fill="#7a8ab8" stroke="#7a8ab8" points="125.353,-45.9967 130.017,-36.0719 125.435,-40.9974 125.517,-35.9981 125.517,-35.9981 125.517,-35.9981 125.435,-40.9974 121.018,-35.9242 125.353,-45.9967 125.353,-45.9967"/>
</g>
<!-- Subject -->
<g id="node4" class="node"><title>Subject</title>
<ellipse fill="none" stroke="black" cx="297" cy="-90" rx="37.0701" ry="18"/>
<text text-anchor="middle" x="297" y="-86.3" font-family="Times,serif" font-size="14.00">Subject</text>
</g>
<!-- User&#45;&gt;Subject -->
<g id="edge4" class="edge"><title>User&#45;&gt;Subject</title>
<path fill="none" stroke="#925d0c" d="M254.13,-138.634C261.127,-130.859 268.988,-122.124 276.05,-114.278"/>
<polygon fill="#925d0c" stroke="#925d0c" points="254.05,-138.722 244.016,-143.144 250.706,-142.438 247.361,-146.155 247.361,-146.155 247.361,-146.155 250.706,-142.438 250.706,-149.165 254.05,-138.722 254.05,-138.722"/>
<polygon fill="#925d0c" stroke="#925d0c" points="276.093,-114.23 286.128,-109.807 279.438,-110.513 282.783,-106.797 282.783,-106.797 282.783,-106.797 279.438,-110.513 279.438,-103.786 276.093,-114.23 276.093,-114.23"/>
</g>
<!-- Link -->
<g id="node6" class="node"><title>Link</title>
<ellipse fill="none" stroke="black" cx="360" cy="-18" rx="26.949" ry="18"/>
<text text-anchor="middle" x="360" y="-14.3" font-family="Times,serif" font-size="14.00">Link</text>
</g>
<!-- User&#45;&gt;Link -->
<g id="edge5" class="edge"><title>User&#45;&gt;Link</title>
<path fill="none" stroke="#4e30cd" d="M267.564,-153.315C292.225,-145.892 324.531,-132.121 343,-108 356.413,-90.4826 360.232,-65.4455 360.943,-46.3863"/>
<ellipse fill="none" stroke="#4e30cd" cx="263.701" cy="-154.414" rx="4.00001" ry="4.00001"/>
<polygon fill="#4e30cd" stroke="#4e30cd" points="360.945,-46.2279 365.555,-36.2785 361,-41.2282 361.056,-36.2285 361.056,-36.2285 361.056,-36.2285 361,-41.2282 356.556,-36.1785 360.945,-46.2279 360.945,-46.2279"/>
</g>
<!-- UserPreference -->
<g id="node8" class="node"><title>UserPreference</title>
<ellipse fill="none" stroke="black" cx="249" cy="-18" rx="64.4914" ry="18"/>
<text text-anchor="middle" x="249" y="-14.3" font-family="Times,serif" font-size="14.00">UserPreference</text>
</g>
<!-- User&#45;&gt;UserPreference -->
<g id="edge3" class="edge"><title>User&#45;&gt;UserPreference</title>
<path fill="none" stroke="#53c3e8" d="M236.687,-135.558C239.34,-110.444 243.384,-72.164 246.106,-46.3932"/>
<ellipse fill="none" stroke="#53c3e8" cx="236.23" cy="-139.894" rx="4" ry="4"/>
<polygon fill="#53c3e8" stroke="#53c3e8" points="246.134,-46.1339 251.659,-36.662 246.659,-41.1616 247.184,-36.1893 247.184,-36.1893 247.184,-36.1893 246.659,-41.1616 242.709,-35.7165 246.134,-46.1339 246.134,-46.1339"/>
</g>
<!-- Role -->
<g id="node9" class="node"><title>Role</title>
<ellipse fill="none" stroke="black" cx="177" cy="-90" rx="26.949" ry="18"/>
<text text-anchor="middle" x="177" y="-86.3" font-family="Times,serif" font-size="14.00">Role</text>
</g>
<!-- User&#45;&gt;Role -->
<g id="edge1" class="edge"><title>User&#45;&gt;Role</title>
<path fill="none" stroke="#c45814" d="M215.167,-137.872C208.931,-130.213 201.993,-121.694 195.762,-114.041"/>
<polygon fill="#c45814" stroke="#c45814" points="215.318,-138.057 218.142,-148.652 218.475,-141.934 221.632,-145.811 221.632,-145.811 221.632,-145.811 218.475,-141.934 225.121,-142.97 215.318,-138.057 215.318,-138.057"/>
<polygon fill="#c45814" stroke="#c45814" points="195.658,-113.914 192.833,-103.318 192.501,-110.037 189.344,-106.159 189.344,-106.159 189.344,-106.159 192.501,-110.037 185.855,-109.001 195.658,-113.914 195.658,-113.914"/>
</g>
<!-- Subject&#45;&gt;Upload -->
<g id="edge6" class="edge"><title>Subject&#45;&gt;Upload</title>
<path fill="none" stroke="#db9b2c" d="M262.281,-74.7041C233.484,-62.8462 192.665,-46.0383 163.409,-33.9919"/>
<ellipse fill="none" stroke="#db9b2c" cx="265.988" cy="-76.2303" rx="4.00002" ry="4.00002"/>
<polygon fill="#db9b2c" stroke="#db9b2c" points="163.212,-33.9107 155.678,-25.9421 158.588,-32.007 153.965,-30.1032 153.965,-30.1032 153.965,-30.1032 158.588,-32.007 152.251,-34.2642 163.212,-33.9107 163.212,-33.9107"/>
</g>
<!-- Subject&#45;&gt;Link -->
<g id="edge7" class="edge"><title>Subject&#45;&gt;Link</title>
<path fill="none" stroke="#8c5c7e" d="M316.782,-67.0201C324.145,-58.8388 332.504,-49.5506 339.896,-41.3376"/>
<ellipse fill="none" stroke="#8c5c7e" cx="313.972" cy="-70.1427" rx="4.00002" ry="4.00002"/>
<polygon fill="#8c5c7e" stroke="#8c5c7e" points="339.933,-41.2969 349.967,-36.8743 343.278,-37.5804 346.622,-33.8639 346.622,-33.8639 346.622,-33.8639 343.278,-37.5804 343.278,-30.8536 339.933,-41.2969 339.933,-41.2969"/>
</g>
<!-- Subject&#45;&gt;UserPreference -->
<g id="edge8" class="edge"><title>Subject&#45;&gt;UserPreference</title>
<path fill="none" stroke="#216b07" d="M281.213,-65.9779C276.522,-59.1356 271.353,-51.5988 266.556,-44.603"/>
<ellipse fill="none" stroke="#216b07" cx="283.605" cy="-69.4657" rx="4.00002" ry="4.00002"/>
<polygon fill="#216b07" stroke="#216b07" points="266.397,-44.3712 264.453,-33.579 263.57,-40.2476 260.742,-36.1239 260.742,-36.1239 260.742,-36.1239 263.57,-40.2476 257.031,-38.6688 266.397,-44.3712 266.397,-44.3712"/>
</g>
<!-- Ability -->
<g id="node5" class="node"><title>Ability</title>
<polygon fill="none" stroke="black" points="376.25,-273 321.75,-273 321.75,-237 376.25,-237 376.25,-273"/>
<text text-anchor="middle" x="349" y="-251.3" font-family="Times,serif" font-size="14.00">Ability</text>
</g>
<!-- Branch -->
<g id="node7" class="node"><title>Branch</title>
<ellipse fill="none" stroke="black" cx="267" cy="-255" rx="36.096" ry="18"/>
<text text-anchor="middle" x="267" y="-251.3" font-family="Times,serif" font-size="14.00">Branch</text>
</g>
<!-- Branch&#45;&gt;User -->
<g id="edge9" class="edge"><title>Branch&#45;&gt;User</title>
<path fill="none" stroke="#a96caa" d="M257.973,-229.107C253.481,-216.721 248.053,-201.752 243.498,-189.193"/>
<ellipse fill="none" stroke="#a96caa" cx="259.429" cy="-233.123" rx="4.00001" ry="4.00001"/>
<polygon fill="#a96caa" stroke="#a96caa" points="243.477,-189.133 244.298,-178.198 241.772,-184.433 240.068,-179.732 240.068,-179.732 240.068,-179.732 241.772,-184.433 235.837,-181.266 243.477,-189.133 243.477,-189.133"/>
</g>
<!-- Branch&#45;&gt;Subject -->
<g id="edge10" class="edge"><title>Branch&#45;&gt;Subject</title>
<path fill="none" stroke="#a09073" d="M271.611,-228.945C277.107,-199.085 286.259,-149.36 291.944,-118.473"/>
<ellipse fill="none" stroke="#a09073" cx="270.878" cy="-232.93" rx="4.00001" ry="4.00001"/>
<polygon fill="#a09073" stroke="#a09073" points="291.988,-118.232 298.224,-109.211 292.893,-113.314 293.798,-108.397 293.798,-108.397 293.798,-108.397 292.893,-113.314 289.372,-107.582 291.988,-118.232 291.988,-118.232"/>
</g>
<!-- Feedback -->
<g id="node10" class="node"><title>Feedback</title>
<ellipse fill="none" stroke="black" cx="439" cy="-255" rx="44.2946" ry="18"/>
<text text-anchor="middle" x="439" y="-251.3" font-family="Times,serif" font-size="14.00">Feedback</text>
</g>
</g>
</svg>
